<svg width="69" height="66" viewBox="0 0 69 66" fill="none" xmlns="http://www.w3.org/2000/svg">
<mask id="path-1-outside-1_878_1001" maskUnits="userSpaceOnUse" x="4.79688" y="-0.257935" width="54" height="61" fill="black">
<rect fill="white" x="4.79688" y="-0.257935" width="54" height="61"/>
<path d="M32.2968 6.74207L23.2554 20.4005C23.3361 20.4813 26.2485 20.3891 26.6973 20.2986C27.1456 20.2082 27.1456 20.2082 26.9447 19.8277C26.5815 19.1396 26.7752 18.4552 27.5129 17.8214C28.4882 16.9834 29.2036 17.9927 28.5866 19.3363C28.3164 19.9247 28.3162 19.9244 29.0504 19.919C29.7536 19.9138 30.2576 19.7677 31.2106 19.2926C32.3368 18.7311 32.3274 18.7426 31.7896 18.5839C30.4331 18.1836 29.2654 17.5711 29.3712 17.3153C29.609 16.7404 29.6043 16.74 31.1632 17.4559C32.2541 17.9569 32.8185 18.0857 33.9247 18.0861C34.4932 18.0863 34.9583 18.1104 34.9583 18.1397C34.9581 18.6222 34.6178 18.8181 33.713 18.8561C32.976 18.8871 32.976 18.887 33.0147 19.215C33.1421 20.2948 34.3552 20.4666 34.7916 19.4667C35.1839 18.5677 35.288 18.5214 35.5823 19.1148C35.978 19.9129 36.3263 20.0965 36.8994 19.8092C37.2251 19.646 37.2429 19.592 37.0914 19.228C36.6932 18.2715 36.179 15.5226 36.3399 15.2104C36.6134 14.6794 36.856 14.8632 36.856 15.6013C36.856 15.7989 37.3707 17.8172 37.5809 18.4437C37.7901 19.0672 37.83 19.0941 38.1099 18.8009C38.217 18.6886 38.3448 18.5968 38.3937 18.5968C38.4427 18.5968 38.4827 18.5662 38.4827 18.5287C38.4827 18.3936 39.192 18.4508 39.3501 18.5986C39.8909 19.1043 39.338 20.8281 38.5734 21.0208C38.1878 21.1179 37.7248 20.7729 37.4982 20.2198C37.3688 19.904 37.3688 19.9041 37.0277 20.1897C36.1523 20.9225 35.6173 20.8547 35.1887 19.9567C35.0317 19.6278 35.012 19.6251 34.8741 19.9154C34.1766 21.3836 32.6629 21.1577 32.5342 19.5662C32.4974 19.1109 32.4848 19.0915 32.3203 19.2332C32.2614 19.2839 32.0467 19.414 31.8429 19.5224C31.6392 19.6307 31.4384 19.7499 31.3968 19.7873C31.3273 19.8498 30.8711 20.0675 30.2817 20.3195C29.4996 20.6538 28.4966 20.7839 27.9712 20.6191C27.688 20.5303 27.6453 20.5323 27.4961 20.6414C26.9999 21.0042 26.5661 21.0732 24.6132 21.1C24.3408 21.1037 24.1797 21.1079 23.9813 21.1118L23.9865 21.1093L22.7687 21.0929L19.193 26.5275C19.4563 26.6354 25.876 26.5885 26.7234 26.4697C28.5289 26.2164 29.0379 25.7249 27.8377 25.3936C26.6519 25.0663 26.7671 24.4921 28.2145 23.5155C28.9701 23.0056 30.0783 22.4952 30.0783 22.6571C30.0783 22.7823 29.7848 23.2909 29.7126 23.2909C29.6087 23.2909 27.9227 24.1352 27.7403 24.2786C27.5773 24.4067 27.6527 24.4751 28.0789 24.586C29.1731 24.8708 29.3294 25.4716 28.5389 26.3541C27.7303 27.2568 27.2677 27.3321 22.5086 27.3359C22.322 27.336 22.2429 27.3406 22.074 27.3409L22.0856 27.3362L18.6697 27.2888L14.8287 33.2374C14.829 33.2969 24.3625 33.2922 25.2662 33.2322C27.3488 33.0941 27.8346 32.5943 26.8483 31.6044C26.6015 31.3567 26.8989 30.6587 27.2182 30.7362C28.0721 30.9434 28.2713 30.9287 28.7792 30.621C29.0666 30.4469 29.1044 30.4851 29.4019 31.2505C29.9398 32.6345 30.7755 33.4074 31.1323 32.8511C31.219 32.716 31.2121 32.6297 31.0614 31.957C31.0243 31.7918 31.0529 31.6831 31.1908 31.4638C31.4126 31.1112 31.4735 31.1159 31.7978 31.51C32.6162 32.5051 32.8227 32.7005 33.295 32.9277C34.0527 33.2922 34.6108 33.2173 34.7241 32.7361C34.7799 32.499 34.509 32.2608 32.6877 30.9448C32.3523 30.7024 32.0328 30.4654 31.9779 30.4181C31.9159 30.3646 31.6121 30.3233 31.1744 30.3087C30.4707 30.2853 30.4706 30.2853 30.5099 30.0879C30.6087 29.5919 30.6576 29.5702 31.7582 29.5312C33.0789 29.4844 33.8952 29.2683 35.3904 28.5698C36.2147 28.1847 36.2877 28.2027 35.9769 28.7143C35.7867 29.0274 33.9712 29.8863 33.2574 30.0009C33.1132 30.024 33.0124 30.0709 33.0334 30.105C33.1634 30.3162 35.6614 32.0764 36.3906 32.4707C37.1046 32.8568 38.6347 33.361 38.5334 33.1768C38.0198 32.2432 36.7205 28.9018 36.7205 28.5148C36.7205 28.3283 36.9788 27.917 37.096 27.917C37.1522 27.917 37.2457 28.0996 37.3303 28.3747C37.7064 29.5966 38.4159 31.3273 39.0569 32.5855C39.7393 33.925 39.2972 34.2882 37.5338 33.8367C36.9266 33.6812 36.0203 33.2862 35.4961 32.9486C35.1212 32.707 35.0525 32.7003 35.0024 32.9003C34.6902 34.1444 33.2425 34.2304 32.0938 33.0732C31.5453 32.5207 31.5019 32.4882 31.5013 32.6282C31.4949 34.0618 29.6397 34.1056 29.2849 32.6806C29.1304 32.0603 28.7373 31.4539 28.4907 31.4557C28.0129 31.4592 27.8096 31.6254 27.7721 32.0433C27.69 32.9568 27.1143 33.5813 26.0795 33.8791C25.6657 33.9982 25.2995 34.0058 20.0473 34.0058C16.972 34.0059 14.4182 34.0135 14.3722 34.0228L9.79688 40.979L14.0721 54.1279C51.7985 25.3878 32.7627 40.0148 40.5683 33.9221C40.6617 33.8481 40.6333 33.7523 40.3231 33.0967C39.4147 31.1766 38.8818 28.7297 39.2628 28.2284C39.5189 27.8914 39.541 27.9105 39.6304 28.5463C39.828 29.9525 40.2901 31.4154 40.9585 32.7512C41.3272 33.4881 41.0821 33.549 42.6841 32.3221C51.7985 25.3878 14.0721 54.1279 51.7985 25.3878C32.2968 6.74207 51.7985 25.3878 32.2968 6.74207ZM39.5368 14.6997C39.6261 14.7229 39.6935 14.9083 39.723 15.2521C39.825 16.4361 40.4075 18.2611 41.0937 19.546C41.5247 20.3531 41.5219 20.3363 41.2785 20.6583C41.0015 21.0247 41.0193 21.039 40.5292 20.0547C39.6899 18.3689 38.987 15.7232 39.2186 15.1212C39.3361 14.8156 39.4475 14.6765 39.5368 14.6997ZM27.7796 15.6992C28.0856 15.7104 28.3378 16.1041 28.0862 16.4368C27.9514 16.615 27.5381 16.5955 27.405 16.4046C27.2551 16.1898 27.2738 16.0313 27.4724 15.8319C27.5697 15.7343 27.6776 15.6955 27.7796 15.6992ZM34.456 16.5431C34.6171 16.5619 34.7743 16.6672 34.843 16.8492C34.9073 17.0197 34.7252 17.3462 34.5374 17.3967C34.1316 17.5058 33.8487 17.1376 34.0453 16.7561C34.1298 16.5919 34.2949 16.5243 34.456 16.5431ZM35.4223 16.5558C35.8022 16.5558 35.9796 17.0274 35.7038 17.3042C35.5239 17.4848 35.2867 17.4763 35.1056 17.2828C34.8287 16.9869 35.0164 16.5558 35.4223 16.5558ZM27.7799 18.3246C27.2074 18.3246 27.1059 18.9446 27.603 19.4045C27.9791 19.7525 28.129 19.7616 28.2784 19.4456C28.5159 18.9433 28.2407 18.3246 27.7799 18.3246ZM38.5454 19.209C37.9144 19.209 37.7812 19.5042 38.2114 19.9492C38.5201 20.2684 38.597 20.2853 38.8463 20.0885C39.2199 19.7936 39.0199 19.209 38.5454 19.209ZM39.7763 21.2071C39.8555 21.207 39.9039 21.3503 39.9049 21.6101C39.9092 22.6807 40.6973 25.0781 41.4909 26.4352C41.6928 26.7805 41.6874 26.9034 41.4572 27.1971C41.2109 27.5114 41.1508 27.4501 40.6268 26.3498C39.9442 24.9166 39.6313 23.821 39.3973 22.0448C39.3538 21.7153 39.4259 21.5193 39.6873 21.256C39.72 21.2231 39.7498 21.2071 39.7763 21.2071ZM36.8212 21.8631C36.9148 21.851 36.9652 22.0484 37.029 22.5086C37.105 23.0568 37.6719 25.1377 37.7776 25.2564C37.7906 25.271 37.9676 25.1679 38.1708 25.0274C39.0705 24.4055 39.6872 24.7233 39.6201 25.7741C39.5163 27.3964 38.2017 27.8614 37.5612 26.5023C37.3763 26.1101 37.3919 26.112 37.0284 26.4394C35.5192 27.7985 32.3894 27.6394 32.2823 26.1981C32.2645 25.9589 32.2337 25.9072 32.0861 25.8676C31.831 25.7991 31.6961 25.6344 31.6573 25.3441C31.6231 25.0879 31.6232 25.0879 31.3249 25.1574C31.0267 25.2268 31.0266 25.2268 31.0679 25.539C31.1787 26.3778 30.564 27.4948 29.7667 27.9031C29.3576 28.1126 28.9939 28.1671 28.9939 28.019C28.9939 27.7665 29.2819 27.3728 29.4665 27.3728C30.3499 27.3728 30.8521 26.2305 30.3377 25.3913C29.9763 24.8017 30.2342 24.429 30.9891 24.45C31.8119 24.4728 31.8752 24.462 32.0695 24.267C32.2873 24.0485 32.3568 24.0931 32.255 24.3861C32.1468 24.6976 32.1613 24.8862 32.3033 25.0152C32.5821 25.2685 32.6846 25.1954 33.5188 24.1478C34.5453 22.8588 35.2797 22.6331 35.778 23.4533C36.2876 24.2922 35.6041 25.0174 33.8401 25.5095C32.6651 25.8373 32.6887 25.8197 33.0097 26.1315C33.6788 26.7816 35.3056 26.8046 36.551 26.1817C37.3331 25.7906 37.3 25.859 37.0645 25.1186C36.5047 23.3585 36.3618 22.4418 36.5939 22.0997C36.6934 21.9531 36.7651 21.8703 36.8212 21.8631ZM34.5331 23.731C34.3645 23.7464 34.1894 23.853 33.9668 24.0545C33.7254 24.2731 33.1961 24.943 33.1961 25.0301C33.1961 25.0544 33.2494 25.0529 33.3147 25.0268C33.3799 25.0007 33.7535 24.8783 34.145 24.7548C35.4566 24.341 35.4893 24.3124 35.0599 23.955C34.8636 23.7916 34.7016 23.7156 34.5331 23.731ZM38.4884 25.4658C38.3176 25.4546 38.1505 25.5 38.0356 25.6158C37.8903 25.7623 38.2796 26.3282 38.6382 26.4916C39.1453 26.7227 39.3257 26.5243 39.1484 25.9305C39.0678 25.6605 38.773 25.4845 38.4884 25.4658ZM21.7991 28.0531C22.1445 28.0531 22.3439 28.4716 22.1315 28.7507C21.963 28.9721 21.55 28.9469 21.387 28.7052C21.2157 28.4512 21.4672 28.0531 21.7991 28.0531ZM22.7499 28.0653C23.1434 28.0271 23.3839 28.441 23.1481 28.7507C22.9462 29.016 22.4553 28.9341 22.3773 28.6221C22.3074 28.3426 22.4751 28.092 22.7499 28.0653ZM28.0262 34.1209C28.4077 34.0835 28.655 34.5015 28.4284 34.8007C28.225 35.0693 27.7425 34.9911 27.6639 34.6768C27.5953 34.4026 27.762 34.1468 28.0262 34.1209ZM29.0406 34.121C29.4655 34.0792 29.6722 34.5217 29.3697 34.8253C29.1921 35.0035 29.1149 35.0189 28.8773 34.9229C28.5167 34.7773 28.6424 34.1602 29.0406 34.121ZM32.1966 34.4755C32.2699 34.4757 32.345 34.4967 32.4148 34.5426C32.6353 34.6876 32.6809 34.8785 32.5539 35.1249C32.3553 35.5104 31.7728 35.3608 31.7728 34.9243C31.7728 34.662 31.9768 34.4751 32.1966 34.4755Z"/>
</mask>
<path d="M32.2968 6.74207L23.2554 20.4005C23.3361 20.4813 26.2485 20.3891 26.6973 20.2986C27.1456 20.2082 27.1456 20.2082 26.9447 19.8277C26.5815 19.1396 26.7752 18.4552 27.5129 17.8214C28.4882 16.9834 29.2036 17.9927 28.5866 19.3363C28.3164 19.9247 28.3162 19.9244 29.0504 19.919C29.7536 19.9138 30.2576 19.7677 31.2106 19.2926C32.3368 18.7311 32.3274 18.7426 31.7896 18.5839C30.4331 18.1836 29.2654 17.5711 29.3712 17.3153C29.609 16.7404 29.6043 16.74 31.1632 17.4559C32.2541 17.9569 32.8185 18.0857 33.9247 18.0861C34.4932 18.0863 34.9583 18.1104 34.9583 18.1397C34.9581 18.6222 34.6178 18.8181 33.713 18.8561C32.976 18.8871 32.976 18.887 33.0147 19.215C33.1421 20.2948 34.3552 20.4666 34.7916 19.4667C35.1839 18.5677 35.288 18.5214 35.5823 19.1148C35.978 19.9129 36.3263 20.0965 36.8994 19.8092C37.2251 19.646 37.2429 19.592 37.0914 19.228C36.6932 18.2715 36.179 15.5226 36.3399 15.2104C36.6134 14.6794 36.856 14.8632 36.856 15.6013C36.856 15.7989 37.3707 17.8172 37.5809 18.4437C37.7901 19.0672 37.83 19.0941 38.1099 18.8009C38.217 18.6886 38.3448 18.5968 38.3937 18.5968C38.4427 18.5968 38.4827 18.5662 38.4827 18.5287C38.4827 18.3936 39.192 18.4508 39.3501 18.5986C39.8909 19.1043 39.338 20.8281 38.5734 21.0208C38.1878 21.1179 37.7248 20.7729 37.4982 20.2198C37.3688 19.904 37.3688 19.9041 37.0277 20.1897C36.1523 20.9225 35.6173 20.8547 35.1887 19.9567C35.0317 19.6278 35.012 19.6251 34.8741 19.9154C34.1766 21.3836 32.6629 21.1577 32.5342 19.5662C32.4974 19.1109 32.4848 19.0915 32.3203 19.2332C32.2614 19.2839 32.0467 19.414 31.8429 19.5224C31.6392 19.6307 31.4384 19.7499 31.3968 19.7873C31.3273 19.8498 30.8711 20.0675 30.2817 20.3195C29.4996 20.6538 28.4966 20.7839 27.9712 20.6191C27.688 20.5303 27.6453 20.5323 27.4961 20.6414C26.9999 21.0042 26.5661 21.0732 24.6132 21.1C24.3408 21.1037 24.1797 21.1079 23.9813 21.1118L23.9865 21.1093L22.7687 21.0929L19.193 26.5275C19.4563 26.6354 25.876 26.5885 26.7234 26.4697C28.5289 26.2164 29.0379 25.7249 27.8377 25.3936C26.6519 25.0663 26.7671 24.4921 28.2145 23.5155C28.9701 23.0056 30.0783 22.4952 30.0783 22.6571C30.0783 22.7823 29.7848 23.2909 29.7126 23.2909C29.6087 23.2909 27.9227 24.1352 27.7403 24.2786C27.5773 24.4067 27.6527 24.4751 28.0789 24.586C29.1731 24.8708 29.3294 25.4716 28.5389 26.3541C27.7303 27.2568 27.2677 27.3321 22.5086 27.3359C22.322 27.336 22.2429 27.3406 22.074 27.3409L22.0856 27.3362L18.6697 27.2888L14.8287 33.2374C14.829 33.2969 24.3625 33.2922 25.2662 33.2322C27.3488 33.0941 27.8346 32.5943 26.8483 31.6044C26.6015 31.3567 26.8989 30.6587 27.2182 30.7362C28.0721 30.9434 28.2713 30.9287 28.7792 30.621C29.0666 30.4469 29.1044 30.4851 29.4019 31.2505C29.9398 32.6345 30.7755 33.4074 31.1323 32.8511C31.219 32.716 31.2121 32.6297 31.0614 31.957C31.0243 31.7918 31.0529 31.6831 31.1908 31.4638C31.4126 31.1112 31.4735 31.1159 31.7978 31.51C32.6162 32.5051 32.8227 32.7005 33.295 32.9277C34.0527 33.2922 34.6108 33.2173 34.7241 32.7361C34.7799 32.499 34.509 32.2608 32.6877 30.9448C32.3523 30.7024 32.0328 30.4654 31.9779 30.4181C31.9159 30.3646 31.6121 30.3233 31.1744 30.3087C30.4707 30.2853 30.4706 30.2853 30.5099 30.0879C30.6087 29.5919 30.6576 29.5702 31.7582 29.5312C33.0789 29.4844 33.8952 29.2683 35.3904 28.5698C36.2147 28.1847 36.2877 28.2027 35.9769 28.7143C35.7867 29.0274 33.9712 29.8863 33.2574 30.0009C33.1132 30.024 33.0124 30.0709 33.0334 30.105C33.1634 30.3162 35.6614 32.0764 36.3906 32.4707C37.1046 32.8568 38.6347 33.361 38.5334 33.1768C38.0198 32.2432 36.7205 28.9018 36.7205 28.5148C36.7205 28.3283 36.9788 27.917 37.096 27.917C37.1522 27.917 37.2457 28.0996 37.3303 28.3747C37.7064 29.5966 38.4159 31.3273 39.0569 32.5855C39.7393 33.925 39.2972 34.2882 37.5338 33.8367C36.9266 33.6812 36.0203 33.2862 35.4961 32.9486C35.1212 32.707 35.0525 32.7003 35.0024 32.9003C34.6902 34.1444 33.2425 34.2304 32.0938 33.0732C31.5453 32.5207 31.5019 32.4882 31.5013 32.6282C31.4949 34.0618 29.6397 34.1056 29.2849 32.6806C29.1304 32.0603 28.7373 31.4539 28.4907 31.4557C28.0129 31.4592 27.8096 31.6254 27.7721 32.0433C27.69 32.9568 27.1143 33.5813 26.0795 33.8791C25.6657 33.9982 25.2995 34.0058 20.0473 34.0058C16.972 34.0059 14.4182 34.0135 14.3722 34.0228L9.79688 40.979L14.0721 54.1279C51.7985 25.3878 32.7627 40.0148 40.5683 33.9221C40.6617 33.8481 40.6333 33.7523 40.3231 33.0967C39.4147 31.1766 38.8818 28.7297 39.2628 28.2284C39.5189 27.8914 39.541 27.9105 39.6304 28.5463C39.828 29.9525 40.2901 31.4154 40.9585 32.7512C41.3272 33.4881 41.0821 33.549 42.6841 32.3221C51.7985 25.3878 14.0721 54.1279 51.7985 25.3878C32.2968 6.74207 51.7985 25.3878 32.2968 6.74207ZM39.5368 14.6997C39.6261 14.7229 39.6935 14.9083 39.723 15.2521C39.825 16.4361 40.4075 18.2611 41.0937 19.546C41.5247 20.3531 41.5219 20.3363 41.2785 20.6583C41.0015 21.0247 41.0193 21.039 40.5292 20.0547C39.6899 18.3689 38.987 15.7232 39.2186 15.1212C39.3361 14.8156 39.4475 14.6765 39.5368 14.6997ZM27.7796 15.6992C28.0856 15.7104 28.3378 16.1041 28.0862 16.4368C27.9514 16.615 27.5381 16.5955 27.405 16.4046C27.2551 16.1898 27.2738 16.0313 27.4724 15.8319C27.5697 15.7343 27.6776 15.6955 27.7796 15.6992ZM34.456 16.5431C34.6171 16.5619 34.7743 16.6672 34.843 16.8492C34.9073 17.0197 34.7252 17.3462 34.5374 17.3967C34.1316 17.5058 33.8487 17.1376 34.0453 16.7561C34.1298 16.5919 34.2949 16.5243 34.456 16.5431ZM35.4223 16.5558C35.8022 16.5558 35.9796 17.0274 35.7038 17.3042C35.5239 17.4848 35.2867 17.4763 35.1056 17.2828C34.8287 16.9869 35.0164 16.5558 35.4223 16.5558ZM27.7799 18.3246C27.2074 18.3246 27.1059 18.9446 27.603 19.4045C27.9791 19.7525 28.129 19.7616 28.2784 19.4456C28.5159 18.9433 28.2407 18.3246 27.7799 18.3246ZM38.5454 19.209C37.9144 19.209 37.7812 19.5042 38.2114 19.9492C38.5201 20.2684 38.597 20.2853 38.8463 20.0885C39.2199 19.7936 39.0199 19.209 38.5454 19.209ZM39.7763 21.2071C39.8555 21.207 39.9039 21.3503 39.9049 21.6101C39.9092 22.6807 40.6973 25.0781 41.4909 26.4352C41.6928 26.7805 41.6874 26.9034 41.4572 27.1971C41.2109 27.5114 41.1508 27.4501 40.6268 26.3498C39.9442 24.9166 39.6313 23.821 39.3973 22.0448C39.3538 21.7153 39.4259 21.5193 39.6873 21.256C39.72 21.2231 39.7498 21.2071 39.7763 21.2071ZM36.8212 21.8631C36.9148 21.851 36.9652 22.0484 37.029 22.5086C37.105 23.0568 37.6719 25.1377 37.7776 25.2564C37.7906 25.271 37.9676 25.1679 38.1708 25.0274C39.0705 24.4055 39.6872 24.7233 39.6201 25.7741C39.5163 27.3964 38.2017 27.8614 37.5612 26.5023C37.3763 26.1101 37.3919 26.112 37.0284 26.4394C35.5192 27.7985 32.3894 27.6394 32.2823 26.1981C32.2645 25.9589 32.2337 25.9072 32.0861 25.8676C31.831 25.7991 31.6961 25.6344 31.6573 25.3441C31.6231 25.0879 31.6232 25.0879 31.3249 25.1574C31.0267 25.2268 31.0266 25.2268 31.0679 25.539C31.1787 26.3778 30.564 27.4948 29.7667 27.9031C29.3576 28.1126 28.9939 28.1671 28.9939 28.019C28.9939 27.7665 29.2819 27.3728 29.4665 27.3728C30.3499 27.3728 30.8521 26.2305 30.3377 25.3913C29.9763 24.8017 30.2342 24.429 30.9891 24.45C31.8119 24.4728 31.8752 24.462 32.0695 24.267C32.2873 24.0485 32.3568 24.0931 32.255 24.3861C32.1468 24.6976 32.1613 24.8862 32.3033 25.0152C32.5821 25.2685 32.6846 25.1954 33.5188 24.1478C34.5453 22.8588 35.2797 22.6331 35.778 23.4533C36.2876 24.2922 35.6041 25.0174 33.8401 25.5095C32.6651 25.8373 32.6887 25.8197 33.0097 26.1315C33.6788 26.7816 35.3056 26.8046 36.551 26.1817C37.3331 25.7906 37.3 25.859 37.0645 25.1186C36.5047 23.3585 36.3618 22.4418 36.5939 22.0997C36.6934 21.9531 36.7651 21.8703 36.8212 21.8631ZM34.5331 23.731C34.3645 23.7464 34.1894 23.853 33.9668 24.0545C33.7254 24.2731 33.1961 24.943 33.1961 25.0301C33.1961 25.0544 33.2494 25.0529 33.3147 25.0268C33.3799 25.0007 33.7535 24.8783 34.145 24.7548C35.4566 24.341 35.4893 24.3124 35.0599 23.955C34.8636 23.7916 34.7016 23.7156 34.5331 23.731ZM38.4884 25.4658C38.3176 25.4546 38.1505 25.5 38.0356 25.6158C37.8903 25.7623 38.2796 26.3282 38.6382 26.4916C39.1453 26.7227 39.3257 26.5243 39.1484 25.9305C39.0678 25.6605 38.773 25.4845 38.4884 25.4658ZM21.7991 28.0531C22.1445 28.0531 22.3439 28.4716 22.1315 28.7507C21.963 28.9721 21.55 28.9469 21.387 28.7052C21.2157 28.4512 21.4672 28.0531 21.7991 28.0531ZM22.7499 28.0653C23.1434 28.0271 23.3839 28.441 23.1481 28.7507C22.9462 29.016 22.4553 28.9341 22.3773 28.6221C22.3074 28.3426 22.4751 28.092 22.7499 28.0653ZM28.0262 34.1209C28.4077 34.0835 28.655 34.5015 28.4284 34.8007C28.225 35.0693 27.7425 34.9911 27.6639 34.6768C27.5953 34.4026 27.762 34.1468 28.0262 34.1209ZM29.0406 34.121C29.4655 34.0792 29.6722 34.5217 29.3697 34.8253C29.1921 35.0035 29.1149 35.0189 28.8773 34.9229C28.5167 34.7773 28.6424 34.1602 29.0406 34.121ZM32.1966 34.4755C32.2699 34.4757 32.345 34.4967 32.4148 34.5426C32.6353 34.6876 32.6809 34.8785 32.5539 35.1249C32.3553 35.5104 31.7728 35.3608 31.7728 34.9243C31.7728 34.662 31.9768 34.4751 32.1966 34.4755Z" fill="white"/>
<path d="M32.2968 6.74207L23.2554 20.4005C23.3361 20.4813 26.2485 20.3891 26.6973 20.2986C27.1456 20.2082 27.1456 20.2082 26.9447 19.8277C26.5815 19.1396 26.7752 18.4552 27.5129 17.8214C28.4882 16.9834 29.2036 17.9927 28.5866 19.3363C28.3164 19.9247 28.3162 19.9244 29.0504 19.919C29.7536 19.9138 30.2576 19.7677 31.2106 19.2926C32.3368 18.7311 32.3274 18.7426 31.7896 18.5839C30.4331 18.1836 29.2654 17.5711 29.3712 17.3153C29.609 16.7404 29.6043 16.74 31.1632 17.4559C32.2541 17.9569 32.8185 18.0857 33.9247 18.0861C34.4932 18.0863 34.9583 18.1104 34.9583 18.1397C34.9581 18.6222 34.6178 18.8181 33.713 18.8561C32.976 18.8871 32.976 18.887 33.0147 19.215C33.1421 20.2948 34.3552 20.4666 34.7916 19.4667C35.1839 18.5677 35.288 18.5214 35.5823 19.1148C35.978 19.9129 36.3263 20.0965 36.8994 19.8092C37.2251 19.646 37.2429 19.592 37.0914 19.228C36.6932 18.2715 36.179 15.5226 36.3399 15.2104C36.6134 14.6794 36.856 14.8632 36.856 15.6013C36.856 15.7989 37.3707 17.8172 37.5809 18.4437C37.7901 19.0672 37.83 19.0941 38.1099 18.8009C38.217 18.6886 38.3448 18.5968 38.3937 18.5968C38.4427 18.5968 38.4827 18.5662 38.4827 18.5287C38.4827 18.3936 39.192 18.4508 39.3501 18.5986C39.8909 19.1043 39.338 20.8281 38.5734 21.0208C38.1878 21.1179 37.7248 20.7729 37.4982 20.2198C37.3688 19.904 37.3688 19.9041 37.0277 20.1897C36.1523 20.9225 35.6173 20.8547 35.1887 19.9567C35.0317 19.6278 35.012 19.6251 34.8741 19.9154C34.1766 21.3836 32.6629 21.1577 32.5342 19.5662C32.4974 19.1109 32.4848 19.0915 32.3203 19.2332C32.2614 19.2839 32.0467 19.414 31.8429 19.5224C31.6392 19.6307 31.4384 19.7499 31.3968 19.7873C31.3273 19.8498 30.8711 20.0675 30.2817 20.3195C29.4996 20.6538 28.4966 20.7839 27.9712 20.6191C27.688 20.5303 27.6453 20.5323 27.4961 20.6414C26.9999 21.0042 26.5661 21.0732 24.6132 21.1C24.3408 21.1037 24.1797 21.1079 23.9813 21.1118L23.9865 21.1093L22.7687 21.0929L19.193 26.5275C19.4563 26.6354 25.876 26.5885 26.7234 26.4697C28.5289 26.2164 29.0379 25.7249 27.8377 25.3936C26.6519 25.0663 26.7671 24.4921 28.2145 23.5155C28.9701 23.0056 30.0783 22.4952 30.0783 22.6571C30.0783 22.7823 29.7848 23.2909 29.7126 23.2909C29.6087 23.2909 27.9227 24.1352 27.7403 24.2786C27.5773 24.4067 27.6527 24.4751 28.0789 24.586C29.1731 24.8708 29.3294 25.4716 28.5389 26.3541C27.7303 27.2568 27.2677 27.3321 22.5086 27.3359C22.322 27.336 22.2429 27.3406 22.074 27.3409L22.0856 27.3362L18.6697 27.2888L14.8287 33.2374C14.829 33.2969 24.3625 33.2922 25.2662 33.2322C27.3488 33.0941 27.8346 32.5943 26.8483 31.6044C26.6015 31.3567 26.8989 30.6587 27.2182 30.7362C28.0721 30.9434 28.2713 30.9287 28.7792 30.621C29.0666 30.4469 29.1044 30.4851 29.4019 31.2505C29.9398 32.6345 30.7755 33.4074 31.1323 32.8511C31.219 32.716 31.2121 32.6297 31.0614 31.957C31.0243 31.7918 31.0529 31.6831 31.1908 31.4638C31.4126 31.1112 31.4735 31.1159 31.7978 31.51C32.6162 32.5051 32.8227 32.7005 33.295 32.9277C34.0527 33.2922 34.6108 33.2173 34.7241 32.7361C34.7799 32.499 34.509 32.2608 32.6877 30.9448C32.3523 30.7024 32.0328 30.4654 31.9779 30.4181C31.9159 30.3646 31.6121 30.3233 31.1744 30.3087C30.4707 30.2853 30.4706 30.2853 30.5099 30.0879C30.6087 29.5919 30.6576 29.5702 31.7582 29.5312C33.0789 29.4844 33.8952 29.2683 35.3904 28.5698C36.2147 28.1847 36.2877 28.2027 35.9769 28.7143C35.7867 29.0274 33.9712 29.8863 33.2574 30.0009C33.1132 30.024 33.0124 30.0709 33.0334 30.105C33.1634 30.3162 35.6614 32.0764 36.3906 32.4707C37.1046 32.8568 38.6347 33.361 38.5334 33.1768C38.0198 32.2432 36.7205 28.9018 36.7205 28.5148C36.7205 28.3283 36.9788 27.917 37.096 27.917C37.1522 27.917 37.2457 28.0996 37.3303 28.3747C37.7064 29.5966 38.4159 31.3273 39.0569 32.5855C39.7393 33.925 39.2972 34.2882 37.5338 33.8367C36.9266 33.6812 36.0203 33.2862 35.4961 32.9486C35.1212 32.707 35.0525 32.7003 35.0024 32.9003C34.6902 34.1444 33.2425 34.2304 32.0938 33.0732C31.5453 32.5207 31.5019 32.4882 31.5013 32.6282C31.4949 34.0618 29.6397 34.1056 29.2849 32.6806C29.1304 32.0603 28.7373 31.4539 28.4907 31.4557C28.0129 31.4592 27.8096 31.6254 27.7721 32.0433C27.69 32.9568 27.1143 33.5813 26.0795 33.8791C25.6657 33.9982 25.2995 34.0058 20.0473 34.0058C16.972 34.0059 14.4182 34.0135 14.3722 34.0228L9.79688 40.979L14.0721 54.1279C51.7985 25.3878 32.7627 40.0148 40.5683 33.9221C40.6617 33.8481 40.6333 33.7523 40.3231 33.0967C39.4147 31.1766 38.8818 28.7297 39.2628 28.2284C39.5189 27.8914 39.541 27.9105 39.6304 28.5463C39.828 29.9525 40.2901 31.4154 40.9585 32.7512C41.3272 33.4881 41.0821 33.549 42.6841 32.3221C51.7985 25.3878 14.0721 54.1279 51.7985 25.3878C32.2968 6.74207 51.7985 25.3878 32.2968 6.74207ZM39.5368 14.6997C39.6261 14.7229 39.6935 14.9083 39.723 15.2521C39.825 16.4361 40.4075 18.2611 41.0937 19.546C41.5247 20.3531 41.5219 20.3363 41.2785 20.6583C41.0015 21.0247 41.0193 21.039 40.5292 20.0547C39.6899 18.3689 38.987 15.7232 39.2186 15.1212C39.3361 14.8156 39.4475 14.6765 39.5368 14.6997ZM27.7796 15.6992C28.0856 15.7104 28.3378 16.1041 28.0862 16.4368C27.9514 16.615 27.5381 16.5955 27.405 16.4046C27.2551 16.1898 27.2738 16.0313 27.4724 15.8319C27.5697 15.7343 27.6776 15.6955 27.7796 15.6992ZM34.456 16.5431C34.6171 16.5619 34.7743 16.6672 34.843 16.8492C34.9073 17.0197 34.7252 17.3462 34.5374 17.3967C34.1316 17.5058 33.8487 17.1376 34.0453 16.7561C34.1298 16.5919 34.2949 16.5243 34.456 16.5431ZM35.4223 16.5558C35.8022 16.5558 35.9796 17.0274 35.7038 17.3042C35.5239 17.4848 35.2867 17.4763 35.1056 17.2828C34.8287 16.9869 35.0164 16.5558 35.4223 16.5558ZM27.7799 18.3246C27.2074 18.3246 27.1059 18.9446 27.603 19.4045C27.9791 19.7525 28.129 19.7616 28.2784 19.4456C28.5159 18.9433 28.2407 18.3246 27.7799 18.3246ZM38.5454 19.209C37.9144 19.209 37.7812 19.5042 38.2114 19.9492C38.5201 20.2684 38.597 20.2853 38.8463 20.0885C39.2199 19.7936 39.0199 19.209 38.5454 19.209ZM39.7763 21.2071C39.8555 21.207 39.9039 21.3503 39.9049 21.6101C39.9092 22.6807 40.6973 25.0781 41.4909 26.4352C41.6928 26.7805 41.6874 26.9034 41.4572 27.1971C41.2109 27.5114 41.1508 27.4501 40.6268 26.3498C39.9442 24.9166 39.6313 23.821 39.3973 22.0448C39.3538 21.7153 39.4259 21.5193 39.6873 21.256C39.72 21.2231 39.7498 21.2071 39.7763 21.2071ZM36.8212 21.8631C36.9148 21.851 36.9652 22.0484 37.029 22.5086C37.105 23.0568 37.6719 25.1377 37.7776 25.2564C37.7906 25.271 37.9676 25.1679 38.1708 25.0274C39.0705 24.4055 39.6872 24.7233 39.6201 25.7741C39.5163 27.3964 38.2017 27.8614 37.5612 26.5023C37.3763 26.1101 37.3919 26.112 37.0284 26.4394C35.5192 27.7985 32.3894 27.6394 32.2823 26.1981C32.2645 25.9589 32.2337 25.9072 32.0861 25.8676C31.831 25.7991 31.6961 25.6344 31.6573 25.3441C31.6231 25.0879 31.6232 25.0879 31.3249 25.1574C31.0267 25.2268 31.0266 25.2268 31.0679 25.539C31.1787 26.3778 30.564 27.4948 29.7667 27.9031C29.3576 28.1126 28.9939 28.1671 28.9939 28.019C28.9939 27.7665 29.2819 27.3728 29.4665 27.3728C30.3499 27.3728 30.8521 26.2305 30.3377 25.3913C29.9763 24.8017 30.2342 24.429 30.9891 24.45C31.8119 24.4728 31.8752 24.462 32.0695 24.267C32.2873 24.0485 32.3568 24.0931 32.255 24.3861C32.1468 24.6976 32.1613 24.8862 32.3033 25.0152C32.5821 25.2685 32.6846 25.1954 33.5188 24.1478C34.5453 22.8588 35.2797 22.6331 35.778 23.4533C36.2876 24.2922 35.6041 25.0174 33.8401 25.5095C32.6651 25.8373 32.6887 25.8197 33.0097 26.1315C33.6788 26.7816 35.3056 26.8046 36.551 26.1817C37.3331 25.7906 37.3 25.859 37.0645 25.1186C36.5047 23.3585 36.3618 22.4418 36.5939 22.0997C36.6934 21.9531 36.7651 21.8703 36.8212 21.8631ZM34.5331 23.731C34.3645 23.7464 34.1894 23.853 33.9668 24.0545C33.7254 24.2731 33.1961 24.943 33.1961 25.0301C33.1961 25.0544 33.2494 25.0529 33.3147 25.0268C33.3799 25.0007 33.7535 24.8783 34.145 24.7548C35.4566 24.341 35.4893 24.3124 35.0599 23.955C34.8636 23.7916 34.7016 23.7156 34.5331 23.731ZM38.4884 25.4658C38.3176 25.4546 38.1505 25.5 38.0356 25.6158C37.8903 25.7623 38.2796 26.3282 38.6382 26.4916C39.1453 26.7227 39.3257 26.5243 39.1484 25.9305C39.0678 25.6605 38.773 25.4845 38.4884 25.4658ZM21.7991 28.0531C22.1445 28.0531 22.3439 28.4716 22.1315 28.7507C21.963 28.9721 21.55 28.9469 21.387 28.7052C21.2157 28.4512 21.4672 28.0531 21.7991 28.0531ZM22.7499 28.0653C23.1434 28.0271 23.3839 28.441 23.1481 28.7507C22.9462 29.016 22.4553 28.9341 22.3773 28.6221C22.3074 28.3426 22.4751 28.092 22.7499 28.0653ZM28.0262 34.1209C28.4077 34.0835 28.655 34.5015 28.4284 34.8007C28.225 35.0693 27.7425 34.9911 27.6639 34.6768C27.5953 34.4026 27.762 34.1468 28.0262 34.1209ZM29.0406 34.121C29.4655 34.0792 29.6722 34.5217 29.3697 34.8253C29.1921 35.0035 29.1149 35.0189 28.8773 34.9229C28.5167 34.7773 28.6424 34.1602 29.0406 34.121ZM32.1966 34.4755C32.2699 34.4757 32.345 34.4967 32.4148 34.5426C32.6353 34.6876 32.6809 34.8785 32.5539 35.1249C32.3553 35.5104 31.7728 35.3608 31.7728 34.9243C31.7728 34.662 31.9768 34.4751 32.1966 34.4755Z" stroke="white" stroke-width="8" mask="url(#path-1-outside-1_878_1001)"/>
<path d="M31.8428 0.088623L19.3287 18.9223C19.4405 19.0337 23.4714 18.9066 24.0926 18.7818C24.7131 18.6571 24.7131 18.6572 24.4351 18.1325C23.9324 17.1836 24.2005 16.2399 25.2215 15.366C26.5714 14.2105 27.5615 15.6022 26.7076 17.4549C26.3336 18.2662 26.3333 18.2658 27.3496 18.2583C28.3229 18.2511 29.0204 18.0497 30.3393 17.3946C31.8981 16.6204 31.8851 16.6362 31.1407 16.4173C29.2633 15.8654 27.6471 15.0208 27.7935 14.6681C28.1227 13.8754 28.1162 13.8749 30.2737 14.862C31.7837 15.5528 32.5649 15.7304 34.0959 15.731C34.8827 15.7313 35.5265 15.7645 35.5265 15.8048C35.5262 16.4702 35.0552 16.7403 33.8029 16.7928C32.7829 16.8355 32.7829 16.8353 32.8364 17.2876C33.0128 18.7766 34.6918 19.0135 35.2958 17.6347C35.8388 16.3951 35.9829 16.3311 36.3902 17.1495C36.9378 18.2499 37.42 18.5032 38.2132 18.107C38.6639 17.8819 38.6886 17.8075 38.4789 17.3056C37.9278 15.9866 37.2161 12.1961 37.4387 11.7656C37.8173 11.0335 38.1531 11.2868 38.1531 12.3046C38.1531 12.5772 38.8655 15.3602 39.1564 16.224C39.4459 17.0838 39.5011 17.1209 39.8886 16.7165C40.0368 16.5618 40.2136 16.4351 40.2814 16.4351C40.3491 16.4351 40.4045 16.3929 40.4045 16.3413C40.4045 16.155 41.3863 16.2338 41.6051 16.4377C42.3535 17.1349 41.5884 19.5119 40.53 19.7776C39.9963 19.9115 39.3555 19.4358 39.0419 18.6731C38.8629 18.2377 38.8628 18.2378 38.3907 18.6315C37.1791 19.642 36.4386 19.5486 35.8455 18.3104C35.6282 17.8568 35.6008 17.8531 35.4099 18.2534C34.4445 20.2779 32.3495 19.9664 32.1714 17.7719C32.1204 17.1441 32.103 17.1173 31.8753 17.3127C31.7938 17.3826 31.4966 17.5621 31.2146 17.7114C30.9326 17.8608 30.6547 18.0252 30.5971 18.0768C30.5009 18.1629 29.8695 18.4631 29.0537 18.8106C27.9713 19.2716 26.583 19.4509 25.8558 19.2237C25.4638 19.1013 25.4048 19.104 25.1982 19.2545C24.5114 19.7548 23.9111 19.8499 21.208 19.8868C20.8311 19.8919 20.6081 19.8978 20.3335 19.9031L20.3407 19.8996L18.6552 19.8771L13.7061 27.3709C14.0706 27.5196 22.9558 27.4549 24.1287 27.2911C26.6277 26.9419 27.3323 26.2642 25.6711 25.8073C24.0298 25.356 24.1892 24.5642 26.1925 23.2175C27.2384 22.5145 28.7723 21.8107 28.7723 22.0339C28.7723 22.2065 28.366 22.9079 28.266 22.9079C28.1222 22.9079 25.7886 24.0721 25.5362 24.2698C25.3106 24.4465 25.415 24.5408 26.0049 24.6937C27.5193 25.0864 27.7356 25.9148 26.6416 27.1317C25.5225 28.3764 24.8821 28.4803 18.2952 28.4855C18.0369 28.4857 17.9274 28.492 17.6937 28.4924L17.7096 28.486L12.9818 28.4206L7.66554 36.6231C7.66601 36.7052 20.8611 36.6986 22.1119 36.616C24.9944 36.4255 25.6667 35.7364 24.3017 34.3714C23.9601 34.0298 24.3716 33.0674 24.8136 33.1742C25.9955 33.46 26.2712 33.4396 26.9741 33.0154C27.372 32.7752 27.4242 32.8279 27.836 33.8835C28.5805 35.7918 29.7372 36.8576 30.2311 36.0905C30.3511 35.9041 30.3415 35.7851 30.1329 34.8576C30.0816 34.6298 30.1211 34.48 30.312 34.1775C30.619 33.6913 30.7033 33.6978 31.1521 34.2413C32.2849 35.6133 32.5707 35.8828 33.2243 36.1961C34.273 36.6986 35.0456 36.5954 35.2024 35.9319C35.2796 35.605 34.9046 35.2764 32.3839 33.4619C31.9195 33.1276 31.4774 32.8008 31.4015 32.7356C31.3155 32.6618 30.8951 32.6049 30.2893 32.5848C29.3153 32.5525 29.3151 32.5525 29.3696 32.2803C29.5063 31.5964 29.5741 31.5664 31.0973 31.5126C32.9252 31.4481 34.0551 31.1501 36.1245 30.187C37.2655 29.656 37.3664 29.6808 36.9363 30.3862C36.6731 30.8179 34.1602 32.0023 33.1723 32.1603C32.9728 32.1922 32.8332 32.2568 32.8623 32.3039C33.0422 32.595 36.4996 35.0222 37.5089 35.566C38.4972 36.0984 40.6149 36.7936 40.4747 36.5396C39.7639 35.2522 37.9655 30.6447 37.9655 30.1112C37.9655 29.8539 38.3231 29.2869 38.4853 29.2869C38.563 29.2869 38.6924 29.5386 38.8096 29.9179C39.33 31.6029 40.3121 33.9893 41.1993 35.7243C42.1438 37.5713 41.5319 38.0721 39.0912 37.4495C38.2508 37.2351 36.9964 36.6904 36.2709 36.2248C35.7519 35.8918 35.6569 35.8825 35.5875 36.1583C35.1555 37.8738 33.1517 37.9924 31.5618 36.3967C30.8027 35.6349 30.7425 35.59 30.7417 35.7831C30.7329 37.7599 28.1652 37.8203 27.674 35.8553C27.4602 35 26.9161 34.1639 26.5749 34.1664C25.9135 34.1712 25.6322 34.4003 25.5802 34.9766C25.4666 36.2363 24.6698 37.0973 23.2376 37.5079C22.6648 37.6721 22.158 37.6826 14.8886 37.6827C10.632 37.6828 7.09741 37.6933 7.03379 37.7062L0.701172 47.2981L6.61843 65.4291C58.8346 25.7993 32.4876 45.9685 43.2911 37.5673C43.4204 37.4652 43.3811 37.3332 42.9518 36.4291C41.6945 33.7815 40.9569 30.4075 41.4842 29.7162C41.8387 29.2515 41.8693 29.2778 41.993 30.1546C42.2666 32.0935 42.9062 34.1108 43.8313 35.9528C44.3415 36.9688 44.0023 37.0528 46.2195 35.361C58.8346 25.7993 6.61843 65.4291 58.8346 25.7993C31.8428 0.0886259 58.8346 25.7993 31.8428 0.088623ZM41.8635 11.0615C41.9871 11.0934 42.0803 11.3491 42.1213 11.8231C42.2623 13.4558 43.0686 15.9722 44.0183 17.744C44.6149 18.857 44.611 18.8337 44.2741 19.2778C43.8908 19.783 43.9154 19.8027 43.2371 18.4454C42.0755 16.1209 41.1026 12.4727 41.423 11.6426C41.5857 11.2213 41.7398 11.0295 41.8635 11.0615ZM25.5906 12.4396C26.0142 12.4551 26.3632 12.998 26.015 13.4567C25.8285 13.7024 25.2564 13.6755 25.0721 13.4124C24.8647 13.1162 24.8905 12.8975 25.1654 12.6227C25.3001 12.488 25.4495 12.4345 25.5906 12.4396ZM34.8313 13.6033C35.0543 13.6292 35.2718 13.7744 35.3669 14.0254C35.456 14.2605 35.2039 14.7107 34.944 14.7803C34.3823 14.9307 33.9908 14.423 34.2628 13.897C34.3799 13.6706 34.6083 13.5773 34.8313 13.6033ZM36.1687 13.6209C36.6945 13.6209 36.94 14.2711 36.5584 14.6528C36.3093 14.9018 35.9811 14.8901 35.7304 14.6233C35.3471 14.2152 35.607 13.6209 36.1687 13.6209ZM25.591 16.0599C24.7987 16.0599 24.6582 16.9147 25.3462 17.5489C25.8668 18.0288 26.0742 18.0413 26.281 17.6055C26.6097 16.9129 26.2289 16.0599 25.591 16.0599ZM40.4914 17.2794C39.618 17.2794 39.4337 17.6864 40.0291 18.2999C40.4563 18.7402 40.5628 18.7635 40.9078 18.4921C41.4249 18.0854 41.1481 17.2794 40.4914 17.2794ZM42.1949 20.0345C42.3046 20.0344 42.3716 20.232 42.373 20.5902C42.379 22.0665 43.4697 25.3722 44.5682 27.2436C44.8476 27.7197 44.84 27.8892 44.5215 28.2942C44.1805 28.7276 44.0974 28.6431 43.3721 27.1258C42.4274 25.1495 41.9943 23.6388 41.6704 21.1897C41.6103 20.7352 41.71 20.4649 42.0718 20.1019C42.117 20.0565 42.1584 20.0345 42.1949 20.0345ZM38.1049 20.939C38.2344 20.9223 38.3043 21.1946 38.3926 21.8291C38.4978 22.585 39.2824 25.4544 39.4287 25.6181C39.4467 25.6382 39.6916 25.4961 39.9728 25.3024C41.2181 24.4448 42.0717 24.883 41.9787 26.3319C41.8352 28.5689 40.0156 29.2101 39.1291 27.3361C38.8732 26.7953 38.8947 26.7979 38.3917 27.2493C36.3029 29.1235 31.9709 28.904 31.8227 26.9166C31.7981 26.5868 31.7555 26.5155 31.5512 26.4609C31.198 26.3665 31.0114 26.1394 30.9577 25.739C30.9103 25.3858 30.9104 25.3858 30.4976 25.4816C30.0848 25.5774 30.0847 25.5773 30.1418 26.0078C30.2953 27.1644 29.4444 28.7047 28.341 29.2676C27.7747 29.5565 27.2713 29.6317 27.2713 29.4274C27.2713 29.0793 27.6699 28.5364 27.9254 28.5364C29.1481 28.5364 29.8432 26.9612 29.1312 25.8041C28.631 24.9911 28.988 24.4772 30.0328 24.5061C31.1717 24.5376 31.2593 24.5228 31.5282 24.2538C31.8296 23.9525 31.9258 24.014 31.7849 24.418C31.6352 24.8476 31.6552 25.1076 31.8518 25.2855C32.2377 25.6348 32.3795 25.5339 33.5341 24.0895C34.9549 22.3121 35.9713 22.0008 36.661 23.1318C37.3663 24.2886 36.4204 25.2886 33.9788 25.9671C32.3525 26.4191 32.3852 26.3948 32.8295 26.8248C33.7556 27.7211 36.0071 27.7529 37.731 26.894C38.8134 26.3547 38.7676 26.4491 38.4417 25.4281C37.6669 23.0011 37.4691 21.737 37.7903 21.2653C37.928 21.0631 38.0272 20.949 38.1049 20.939ZM34.938 23.5147C34.7047 23.5359 34.4623 23.6829 34.1541 23.9609C33.82 24.2622 33.0874 25.186 33.0874 25.3061C33.0874 25.3396 33.1613 25.3375 33.2516 25.3015C33.3419 25.2655 33.859 25.0967 34.4008 24.9264C36.2161 24.3558 36.2615 24.3164 35.6672 23.8236C35.3954 23.5983 35.1713 23.4935 34.938 23.5147ZM40.4124 25.9068C40.176 25.8914 39.9448 25.954 39.7858 26.1137C39.5846 26.3157 40.1234 27.096 40.6198 27.3213C41.3217 27.6399 41.5713 27.3664 41.3259 26.5476C41.2144 26.1753 40.8063 25.9326 40.4124 25.9068ZM17.3131 29.4745C17.7912 29.4745 18.0672 30.0515 17.7732 30.4364C17.54 30.7417 16.9683 30.707 16.7428 30.3737C16.5056 30.0234 16.8538 29.4745 17.3131 29.4745ZM18.6292 29.4913C19.1738 29.4387 19.5066 30.0093 19.1803 30.4364C18.9009 30.8023 18.2215 30.6893 18.1135 30.259C18.0167 29.8736 18.2488 29.5281 18.6292 29.4913ZM25.932 37.8414C26.4599 37.7898 26.8022 38.3662 26.4886 38.7787C26.207 39.1491 25.5393 39.0414 25.4305 38.608C25.3356 38.2298 25.5662 37.8772 25.932 37.8414ZM27.336 37.8416C27.924 37.7839 28.2101 38.394 27.7915 38.8126C27.5456 39.0585 27.4388 39.0797 27.1099 38.9473C26.6108 38.7465 26.7848 37.8956 27.336 37.8416ZM31.7041 38.3304C31.8056 38.3306 31.9094 38.3596 32.0061 38.4229C32.3112 38.6229 32.3744 38.886 32.1986 39.2258C31.9238 39.7574 31.1175 39.5511 31.1175 38.9491C31.1175 38.5875 31.3998 38.3298 31.7041 38.3304Z" fill="#EE7103"/>
<path d="M48.7915 64.4589C48.3642 64.3823 47.6605 64.047 47.4375 63.8137L47.3485 63.7207L47.6374 63.4474L47.9262 63.1742L48.1075 63.2966C48.3518 63.4616 48.6642 63.6129 48.8388 63.6509C49.0201 63.6904 49.3349 63.6495 49.4646 63.5698C49.6137 63.4779 49.6654 63.2807 49.5715 63.1617C49.4823 63.0489 49.3659 62.9976 48.8124 62.8278C48.2117 62.6435 48.1029 62.5955 47.8822 62.4178C47.6089 62.1978 47.4632 61.7912 47.5132 61.389C47.5648 60.975 47.956 60.5418 48.4236 60.3809C48.571 60.3301 48.641 60.3226 48.9494 60.324C49.2675 60.3254 49.3279 60.333 49.5211 60.3961C49.6399 60.4349 49.8114 60.5054 49.9022 60.5528C50.1135 60.6629 50.3665 60.8625 50.3498 60.9059C50.3234 60.9746 49.9401 61.5056 49.9081 61.5178C49.8897 61.5248 49.7767 61.465 49.657 61.3848C49.356 61.1832 49.2429 61.1447 48.9554 61.1453C48.5869 61.1462 48.4068 61.2559 48.3839 61.4936C48.374 61.5966 48.3817 61.627 48.432 61.6831C48.4946 61.7529 48.9589 61.9469 49.3178 62.0534C49.9792 62.2495 50.3585 62.5589 50.4758 62.998C50.6344 63.591 50.258 64.1805 49.5754 64.4082C49.3889 64.4705 48.9974 64.4957 48.7915 64.4589ZM44.5408 64.4184C44.3729 64.3866 44.075 64.2709 43.9028 64.1705C43.5742 63.979 43.3498 63.6877 43.2579 63.3337C43.181 63.0374 43.147 61.8821 43.1854 60.8727L43.2021 60.4362H43.6809H44.1596V61.599C44.1596 62.3636 44.1694 62.8077 44.1882 62.8959C44.2476 63.1749 44.4076 63.3904 44.6392 63.5034C44.8088 63.5862 45.1633 63.5863 45.3317 63.5037C45.4942 63.4239 45.6283 63.2868 45.7068 63.1202L45.7732 62.9793L45.7806 61.7204L45.7881 60.4615H46.2705C46.6483 60.4615 46.7558 60.4688 46.766 60.4951C46.7731 60.5136 46.7686 61.137 46.7559 61.8806C46.7335 63.1976 46.7314 63.2366 46.6744 63.3969C46.5091 63.8613 46.1983 64.1748 45.7205 64.3589C45.5854 64.411 45.5202 64.4177 45.0871 64.4237C44.8216 64.4274 44.5757 64.425 44.5408 64.4184ZM56.2585 64.4087C55.9587 64.346 55.6169 64.1708 55.3943 63.9655C55.2219 63.8066 55.0819 63.5634 55.0218 63.3184C54.9608 63.0697 54.9303 62.2148 54.9491 61.2776L54.9659 60.4362H55.444H55.9221L55.9295 61.6825L55.937 62.9288L56.0158 63.0947C56.1519 63.3815 56.3683 63.5376 56.6684 63.5655C56.8877 63.5859 57.0601 63.5411 57.2306 63.4195C57.3406 63.3411 57.3876 63.2845 57.4539 63.1504L57.5378 62.9806L57.5505 61.7274L57.5632 60.4742H58.046H58.5288L58.5216 61.7768C58.5137 63.1994 58.506 63.2897 58.3668 63.5801C58.1971 63.9342 57.8708 64.2212 57.4743 64.3651C57.3567 64.4078 57.258 64.4171 56.8518 64.4238C56.5862 64.4282 56.3193 64.4214 56.2585 64.4087ZM38.3408 62.4227V60.4362H38.8832C39.3683 60.4362 39.4296 60.4409 39.4635 60.4805C39.4844 60.5049 39.6012 60.6842 39.7231 60.8791C39.9017 61.1644 40.2414 61.6978 40.3759 61.9039C40.3974 61.937 40.4046 61.9361 40.4316 61.8971C40.4486 61.8724 40.6644 61.5593 40.9112 61.2012C41.158 60.8431 41.3786 60.5245 41.4015 60.4932C41.4423 60.4374 41.4537 60.4362 41.9502 60.4362H42.4572V62.4227V64.4091H41.9744H41.4916V63.2198C41.4916 62.4714 41.4825 62.0305 41.4671 62.0305C41.4536 62.0305 41.2746 62.2838 41.0695 62.5935C40.6731 63.1918 40.4558 63.4982 40.428 63.4982C40.4186 63.4982 40.1881 63.1797 39.9158 62.7905C39.6021 62.342 39.4068 62.0849 39.3826 62.0886C39.3495 62.0936 39.3436 62.2458 39.3379 63.2518L39.3313 64.4091H38.8361H38.3408L38.3408 62.4227ZM51.2743 62.4229V60.4362H52.7735H54.2727V60.8029V61.1695L53.2118 61.1761L52.151 61.1827V61.5496V61.9166L53.1102 61.9232L54.0694 61.9298V62.3594V62.789L53.1102 62.7956L52.151 62.8022L52.144 63.1752L52.1369 63.5482L53.2111 63.5548L54.2854 63.5614V63.9789V64.3964L52.7799 64.403L51.2743 64.4095V62.4229ZM59.3036 64.3965C59.3036 64.3895 59.3036 63.4984 59.3036 62.4163V60.4489H59.8425H60.3814L60.8457 61.1701C61.1011 61.5667 61.3156 61.9026 61.3225 61.9166C61.3376 61.947 61.3127 61.981 61.8983 61.1329L62.3705 60.4489L62.8829 60.442L63.3952 60.4352V62.4222V64.4091H62.9125H62.4297V63.2198C62.4297 62.5657 62.4224 62.0305 62.4134 62.0305C62.3882 62.0305 62.3526 62.0806 61.9549 62.6757C61.5423 63.2933 61.3958 63.4981 61.3668 63.4981C61.3562 63.4981 61.125 63.1795 60.8531 62.79C60.537 62.3372 60.345 62.0842 60.3207 62.0882C60.2875 62.0936 60.2817 62.2461 60.2759 63.2518L60.2693 64.4091H59.7868C59.5214 64.4091 59.3042 64.4034 59.3041 64.3965L59.3036 64.3965ZM58.2366 55.6298V53.628L58.7003 53.6349L59.164 53.6418L59.1706 55.6015C59.175 56.9497 59.1687 57.5696 59.1503 57.588C59.1342 57.604 58.9461 57.6181 58.6801 57.6231L58.2366 57.6315L58.2366 55.6298ZM38.3534 57.5451C38.3457 57.5138 38.3427 56.6228 38.3465 55.565L38.3535 53.6418H39.8654H41.3773L41.3843 54.0501L41.3912 54.4584L40.3234 54.4772L39.2556 54.4959V54.809V55.1222H40.2084H41.1613V55.552V55.9819L40.2021 55.9886L39.2429 55.9952L39.2358 56.3681L39.2288 56.7411L40.3016 56.7477L41.3745 56.7543L41.385 57.1782L41.3956 57.602H39.8814H38.3672L38.3534 57.5451ZM43.8039 57.5556C43.196 57.4287 42.9217 57.2503 42.615 56.7822C42.3395 56.3617 42.2014 55.7244 42.2794 55.2342C42.4052 54.4438 42.9105 53.812 43.5879 53.598C43.7383 53.5506 43.8247 53.5418 44.1469 53.5413C44.7551 53.5403 45.1078 53.6585 45.4579 53.9806L45.6428 54.1507L45.4437 54.415C45.3343 54.5604 45.2356 54.6895 45.2244 54.702C45.2131 54.7147 45.14 54.6664 45.0595 54.5931C44.8757 54.4259 44.7123 54.3437 44.4725 54.298C44.1108 54.2291 43.8639 54.2655 43.6145 54.4245C43.2541 54.6543 43.0558 55.0546 43.0561 55.5523C43.0564 56.356 43.5176 56.8288 44.2994 56.8271C44.5765 56.8266 44.7653 56.7761 44.9529 56.6525L45.0507 56.588L45.0435 56.3169L45.0363 56.0458L44.5973 56.0389L44.1583 56.0319L44.1653 55.6593L44.1723 55.2866L45.0557 55.28L45.939 55.2733L45.9323 56.115L45.9256 56.9566L45.7546 57.0844C45.5239 57.2568 45.2384 57.4049 44.9474 57.5031C44.7311 57.5761 44.6702 57.5855 44.3629 57.5927C44.1061 57.5987 43.9656 57.5894 43.8039 57.5556ZM47.7678 56.8016V56.0011L47.4397 55.4794C47.2593 55.1925 46.9287 54.6675 46.705 54.3128C46.4814 53.9581 46.3038 53.6592 46.3104 53.6485C46.317 53.6379 46.5389 53.6292 46.8035 53.6292H47.2845L47.3708 53.762C47.4183 53.8351 47.6089 54.1511 47.7944 54.4642C47.9799 54.7774 48.1461 55.0548 48.1637 55.0807C48.2002 55.1342 48.1934 55.1439 48.8066 54.1669C48.9923 53.8711 49.1575 53.6287 49.1738 53.6281C49.3199 53.6227 50.0676 53.6336 50.0753 53.6412C50.0841 53.65 49.7372 54.2374 48.92 55.5975L48.6571 56.0349V56.8185V57.6021H48.2125H47.7678V56.8016ZM50.7469 55.6143L50.7534 53.6266L51.7063 53.6245C52.5843 53.6226 52.6787 53.6266 52.9077 53.6757C53.1874 53.7357 53.3079 53.8039 53.4893 54.0048C53.7397 54.2821 53.8661 54.6494 53.8661 55.0994C53.8661 55.6564 53.653 56.0096 53.1765 56.2422C52.8457 56.4036 52.6638 56.4341 52.0176 56.4365L51.6047 56.438V57.02V57.6021H51.1725H50.7404L50.7469 55.6143ZM52.5575 55.6033C52.8655 55.507 52.9957 55.3206 52.9707 55.0114C52.9514 54.771 52.8343 54.5648 52.6766 54.4933C52.4913 54.4093 52.3572 54.3896 51.9668 54.3889L51.6047 54.3884V55.0168C51.6047 55.3624 51.6132 55.6541 51.6237 55.6649C51.6342 55.6758 51.8086 55.6789 52.0112 55.6718C52.2926 55.662 52.4217 55.6458 52.5575 55.6033ZM55.3846 56.0521L55.378 54.5022L54.7988 54.4895L54.2196 54.4769L54.2184 54.0638C54.2177 53.8366 54.2222 53.6458 54.2282 53.6398C54.2342 53.6338 54.9785 53.6261 55.8821 53.6227L57.5251 53.6165V54.053V54.4895H56.9561C56.4607 54.4895 56.3852 54.4947 56.3717 54.5296C56.3632 54.5516 56.3563 55.2519 56.3563 56.0858V57.6021H55.8737H55.3911L55.3846 56.0521ZM59.812 57.5669C59.812 57.4781 60.4198 55.9845 60.8532 55.0083C60.9086 54.8836 61.2767 54.0335 61.3768 53.7994L61.45 53.6281L61.9161 53.6349L62.3822 53.6418L62.8268 54.6793C63.0713 55.2499 63.4478 56.1284 63.6634 56.6314C63.879 57.1344 64.0554 57.5586 64.0554 57.574C64.0554 57.5935 63.9131 57.602 63.5877 57.602H63.12L63.0454 57.4439C63.0043 57.3569 62.9154 57.1689 62.8479 57.026L62.725 56.7663L61.9002 56.773C61.1982 56.7786 61.0721 56.7853 61.0538 56.8176C61.042 56.8385 60.9648 57.0207 60.8823 57.2225L60.7323 57.5894L60.2722 57.5963C59.886 57.6021 59.812 57.5973 59.812 57.5669ZM62.3121 55.8605C62.3286 55.8338 61.9313 54.784 61.9008 54.7738C61.875 54.7653 61.4627 55.833 61.4805 55.8623C61.4963 55.8883 62.2959 55.8865 62.3121 55.8605ZM64.6261 57.5704C64.6194 57.553 64.6169 56.662 64.6205 55.5903L64.6271 53.6418L65.0336 53.6355C65.2572 53.6321 65.4522 53.6378 65.4669 53.6482C65.4816 53.6586 65.7725 54.0201 66.1134 54.4516C66.4543 54.883 66.8597 55.3951 67.0142 55.5896L67.2951 55.9432L67.3078 54.7925L67.3205 53.6418L67.7461 53.6349L68.1717 53.628V55.615V57.6021H67.7778H67.3839L66.5137 56.4402C66.0351 55.8011 65.6349 55.2773 65.6244 55.2761C65.6139 55.275 65.6054 55.7978 65.6054 56.4381V57.6021H65.1218C64.7583 57.6021 64.6352 57.5942 64.6261 57.5704ZM40.2974 50.8803C39.8345 50.8143 39.5401 50.7298 39.327 50.6017C39.0543 50.4379 38.772 50.0823 38.6208 49.7121C38.4424 49.2756 38.4007 48.713 38.5155 48.2898C38.7208 47.5328 39.2037 47.0185 39.858 46.8601C40.0066 46.8242 40.1133 46.8183 40.4295 46.8288C40.8675 46.8434 41.0714 46.8888 41.3831 47.0414C41.5549 47.1255 41.8474 47.3672 41.8474 47.4251C41.8474 47.4563 41.4177 47.9861 41.3924 47.9861C41.3823 47.9861 41.3408 47.9515 41.3 47.9092C41.1164 47.7183 40.8466 47.5974 40.5074 47.5541C40.1395 47.5071 39.8776 47.5971 39.6227 47.858C39.3596 48.1273 39.2442 48.4221 39.2456 48.8212C39.2478 49.4599 39.4945 49.8544 40.0072 50.0392C40.1255 50.0819 40.2201 50.0941 40.4498 50.0963C40.7821 50.0995 40.9634 50.0561 41.1349 49.9324L41.2375 49.8584V49.5935V49.3285L40.7992 49.3216L40.3609 49.3147L40.3539 48.9414L40.3468 48.5682H41.2368H42.1269V49.3897V50.2112L41.9749 50.3371C41.5206 50.7136 40.7892 50.9504 40.2974 50.8803ZM45.2439 50.8036C45.2347 50.7944 45.0538 50.5265 44.842 50.2083L44.4568 49.6296L44.0986 49.6366L43.7404 49.6436L43.7336 50.2193L43.7267 50.795H43.2697H42.8126L42.8191 48.8075L42.8256 46.8201L43.9489 46.8216C45.0144 46.823 45.0812 46.8258 45.2448 46.876C45.467 46.9442 45.608 47.0274 45.7722 47.1871C45.9287 47.3393 46.0108 47.4636 46.0912 47.6698C46.1435 47.8043 46.1505 47.8665 46.1523 48.2139C46.1541 48.5768 46.1497 48.6165 46.0924 48.7453C45.9597 49.0439 45.7198 49.3353 45.517 49.4441C45.4692 49.4697 45.4301 49.5004 45.4301 49.5124C45.4301 49.5243 45.6034 49.8149 45.8151 50.1582C46.0269 50.5015 46.2048 50.7909 46.2105 50.8013C46.2232 50.8247 45.2674 50.8269 45.2439 50.8036ZM44.9001 48.6889C44.9678 48.6493 45.0525 48.5684 45.099 48.4991C45.1758 48.3845 45.1795 48.368 45.1716 48.1739C45.1644 47.9957 45.1542 47.9575 45.0917 47.8761C44.9535 47.6956 44.9516 47.6951 44.3133 47.6951H43.7404L43.7335 48.2005C43.7297 48.4785 43.7325 48.7213 43.7397 48.7401C43.7504 48.7677 43.8529 48.7727 44.2675 48.7661C44.7754 48.7581 44.7837 48.757 44.9001 48.6889ZM49.8514 50.8014C49.8514 50.788 49.77 50.5932 49.6705 50.3685L49.4896 49.9599H48.6959H47.9021L47.7178 50.3775L47.5334 50.795H47.0553H46.5773L46.6361 50.6495C46.733 50.4096 48.2527 46.8369 48.2617 46.8279C48.2802 46.8095 49.1487 46.8208 49.1657 46.8397C49.1758 46.8509 49.2187 46.9455 49.2609 47.0499C49.3032 47.1542 49.4887 47.5927 49.6731 48.0241C49.8576 48.4556 50.0516 48.911 50.1043 49.0363C50.1571 49.1616 50.3453 49.6041 50.5226 50.0197C50.7 50.4354 50.8378 50.7827 50.8289 50.7915C50.8016 50.8187 49.8514 50.8283 49.8514 50.8014ZM49.2162 49.1522C49.2162 49.1339 48.824 48.0519 48.7455 47.8533C48.7154 47.7773 48.6954 47.8029 48.6271 48.0051C48.5907 48.113 48.4899 48.4005 48.4032 48.6441C48.3165 48.8876 48.2396 49.1068 48.2324 49.1312C48.2202 49.1723 48.2549 49.1755 48.7177 49.1755C49.0044 49.1755 49.2162 49.1656 49.2162 49.1522ZM55.9431 50.8053C55.9328 50.795 55.9243 49.8946 55.9243 48.8043V46.8221L56.9343 46.8222C57.8601 46.8223 57.9623 46.8266 58.1587 46.8736C58.6801 46.998 59.158 47.3895 59.4162 47.9034C59.5826 48.2348 59.6161 48.3702 59.6277 48.7579C59.6446 49.3293 59.5376 49.7153 59.2575 50.0929C59.0685 50.3477 58.6705 50.6231 58.3255 50.7378L58.1222 50.8054L57.0421 50.8147C56.448 50.8198 55.9535 50.8155 55.9431 50.8052V50.8053ZM57.6903 50.0258C58.1831 49.9503 58.4627 49.7234 58.5977 49.2894C58.6807 49.0226 58.6791 48.5659 58.5944 48.3436C58.5209 48.1506 58.3246 47.9267 58.1433 47.829C57.9071 47.7017 57.7782 47.6807 57.2815 47.6882L56.8264 47.6951L56.8197 48.8465C56.8161 49.4798 56.8186 50.0121 56.8253 50.0295C56.8423 50.0736 57.3937 50.0712 57.6903 50.0258ZM51.3822 48.8149L51.3887 46.8348L51.8252 46.8279L52.2618 46.821L52.351 46.9291C52.4001 46.9886 52.6942 47.3675 53.0047 47.7711C53.3151 48.1747 53.6788 48.6473 53.8129 48.8212L54.0567 49.1376L54.0694 47.9735C54.0764 47.3333 54.0907 46.8123 54.1012 46.8158C54.1117 46.8193 54.3318 46.8221 54.5903 46.8221H55.0604V48.8086V50.795L54.6221 50.7936L54.1838 50.7922L53.7607 50.2432C52.6921 48.8565 52.3846 48.4688 52.3639 48.4815C52.3516 48.4891 52.3416 49.0118 52.3416 49.6451V50.795H51.8586H51.3757L51.3822 48.8149Z" fill="white"/>
<path d="M35.05 46.8158H34.7637V64.476H35.05V46.8158Z" fill="white"/>
</svg>
