<svg width="303" height="56" viewBox="0 0 303 56" fill="none" xmlns="http://www.w3.org/2000/svg">
<path d="M302.183 1.5V53.8174H7.00195L31.1299 1.5H302.183Z" fill="#B83D23" stroke="#B83D23"/>
<path d="M46.5747 23.0621L24.2093 1.81201L1 36.9576L6.42555 53.5055L46.5747 23.0621Z" fill="#DFD4C2" stroke="#DFD4C2"/>
<path d="M52.9203 22.9176L29.8524 1L5.91406 37.2495L11.51 54.3173L52.9203 22.9176Z" fill="white" stroke="white"/>
<path d="M29.6636 4.42578L20.7643 17.8191C20.8438 17.8984 23.7104 17.808 24.1521 17.7192C24.5934 17.6305 24.5934 17.6306 24.3957 17.2574C24.0382 16.5827 24.2289 15.9116 24.9549 15.2901C25.9149 14.4684 26.619 15.458 26.0117 16.7756C25.7458 17.3525 25.7456 17.3523 26.4683 17.347C27.1604 17.3418 27.6565 17.1986 28.5944 16.7327C29.7029 16.1822 29.6936 16.1934 29.1643 16.0378C27.8292 15.6453 26.6798 15.0446 26.784 14.7938C27.018 14.2301 27.0135 14.2297 28.5478 14.9317C29.6215 15.423 30.1771 15.5493 31.2658 15.5497C31.8254 15.5499 32.2832 15.5735 32.2832 15.6022C32.283 16.0754 31.948 16.2674 31.0575 16.3047C30.3321 16.3351 30.3321 16.335 30.3702 16.6567C30.4956 17.7155 31.6896 17.884 32.1191 16.9034C32.5053 16.0219 32.6078 15.9765 32.8974 16.5584C33.2869 17.341 33.6297 17.5211 34.1938 17.2393C34.5144 17.0792 34.5319 17.0264 34.3827 16.6694C33.9908 15.7315 33.4847 13.0359 33.6431 12.7297C33.9123 12.2091 34.1511 12.3892 34.1511 13.113C34.1511 13.3069 34.6577 15.286 34.8646 15.9003C35.0705 16.5117 35.1097 16.5381 35.3852 16.2505C35.4907 16.1405 35.6164 16.0504 35.6646 16.0504C35.7127 16.0504 35.7521 16.0204 35.7521 15.9837C35.7521 15.8512 36.4504 15.9072 36.606 16.0522C37.1382 16.5481 36.594 18.2384 35.8414 18.4274C35.4619 18.5226 35.0062 18.1843 34.7831 17.6419C34.6558 17.3323 34.6558 17.3324 34.3201 17.6124C33.4585 18.331 32.9319 18.2645 32.51 17.384C32.3555 17.0614 32.336 17.0588 32.2003 17.3434C31.5138 18.7831 30.0239 18.5617 29.8972 17.001C29.861 16.5546 29.8486 16.5355 29.6867 16.6745C29.6287 16.7242 29.4174 16.8518 29.2168 16.958C29.0163 17.0642 28.8187 17.1811 28.7777 17.2178C28.7093 17.2791 28.2603 17.4926 27.6801 17.7397C26.9104 18.0675 25.9231 18.1951 25.406 18.0335C25.1273 17.9464 25.0853 17.9483 24.9383 18.0554C24.45 18.4111 24.023 18.4788 22.1008 18.505C21.8328 18.5087 21.6741 18.5128 21.4789 18.5166L21.484 18.5141L20.2854 18.4981L16.7659 23.8272C17.0251 23.933 23.3437 23.887 24.1778 23.7705C25.9549 23.5222 26.456 23.0402 25.2746 22.7153C24.1075 22.3944 24.2208 21.8313 25.6455 20.8736C26.3892 20.3737 27.48 19.8732 27.48 20.0319C27.48 20.1547 27.1911 20.6534 27.12 20.6534C27.0177 20.6534 25.3582 21.4814 25.1787 21.6219C25.0183 21.7476 25.0925 21.8146 25.512 21.9234C26.589 22.2027 26.7428 22.7918 25.9648 23.6571C25.1689 24.5423 24.7136 24.6162 20.0294 24.6199C19.8457 24.62 19.7678 24.6245 19.6016 24.6248L19.6129 24.6202L16.2508 24.5737L12.4702 30.4069C12.4705 30.4652 21.854 30.4606 22.7435 30.4018C24.7934 30.2664 25.2715 29.7763 24.3008 28.8055C24.0579 28.5626 24.3506 27.8782 24.6649 27.9542C25.5053 28.1574 25.7014 28.1429 26.2013 27.8412C26.4842 27.6705 26.5213 27.7079 26.8142 28.4586C27.3436 29.8157 28.1662 30.5736 28.5174 30.0281C28.6028 29.8955 28.5959 29.8109 28.4476 29.1514C28.4111 28.9894 28.4392 28.8828 28.575 28.6677C28.7933 28.3219 28.8533 28.3265 29.1724 28.713C29.978 29.6887 30.1812 29.8804 30.646 30.1032C31.3918 30.4606 31.9412 30.3872 32.0527 29.9153C32.1076 29.6828 31.8409 29.4492 30.0484 28.1588C29.7181 27.9211 29.4038 27.6887 29.3497 27.6423C29.2886 27.5898 28.9896 27.5493 28.5588 27.535C27.8661 27.5121 27.866 27.5121 27.9048 27.3185C28.002 26.8321 28.0502 26.8108 29.1334 26.7726C30.4333 26.7267 31.2369 26.5148 32.7085 25.8299C33.5199 25.4523 33.5916 25.4699 33.2858 25.9715C33.0986 26.2785 31.3116 27.1208 30.609 27.2332C30.4671 27.2558 30.3679 27.3018 30.3886 27.3353C30.5165 27.5423 32.9752 29.2684 33.693 29.6551C34.3958 30.0337 35.9018 30.5281 35.802 30.3475C35.2966 29.432 34.0177 26.1554 34.0177 25.776C34.0177 25.593 34.2719 25.1898 34.3873 25.1898C34.4426 25.1898 34.5346 25.3688 34.6179 25.6385C34.988 26.8368 35.6864 28.5338 36.3174 29.7677C36.989 31.0811 36.5539 31.4373 34.8182 30.9945C34.2206 30.8421 33.3285 30.4547 32.8126 30.1236C32.4435 29.8868 32.376 29.8802 32.3266 30.0763C32.0193 31.2962 30.5944 31.3806 29.4637 30.2458C28.9239 29.7041 28.8811 29.6722 28.8805 29.8095C28.8743 31.2152 27.0483 31.2582 26.699 29.8608C26.547 29.2526 26.16 28.658 25.9174 28.6598C25.447 28.6632 25.247 28.8261 25.21 29.2359C25.1293 30.1317 24.5626 30.7441 23.5441 31.0361C23.1368 31.1529 22.7764 31.1603 17.6068 31.1604C14.5798 31.1604 12.0662 31.1679 12.0209 31.1771L7.51758 37.9982L11.7256 50.8919C48.8585 22.7096 30.1221 37.0527 37.8049 31.0783C37.8968 31.0057 37.8689 30.9118 37.5636 30.2689C36.6695 28.386 36.145 25.9867 36.52 25.495C36.772 25.1646 36.7938 25.1833 36.8818 25.8068C37.0763 27.1857 37.5312 28.6203 38.189 29.9301C38.5519 30.6527 38.3107 30.7124 39.8874 29.5093C48.8585 22.7096 11.7256 50.8919 48.8585 22.7096C29.6636 4.42578 48.8585 22.7096 29.6636 4.42578ZM36.7897 12.229C36.8776 12.2517 36.9439 12.4336 36.973 12.7706C37.0733 13.9317 37.6466 15.7212 38.3221 16.9812C38.7463 17.7727 38.7435 17.7561 38.504 18.0719C38.2313 18.4312 38.2488 18.4452 37.7665 17.48C36.9404 15.827 36.2486 13.2326 36.4764 12.6423C36.5921 12.3426 36.7017 12.2063 36.7897 12.229ZM25.2174 13.2091C25.5186 13.2201 25.7668 13.6061 25.5192 13.9323C25.3866 14.1071 24.9798 14.0879 24.8487 13.9008C24.7012 13.6902 24.7196 13.5347 24.915 13.3392C25.0108 13.2435 25.117 13.2054 25.2174 13.2091ZM31.7888 14.0366C31.9474 14.055 32.1021 14.1582 32.1697 14.3368C32.233 14.504 32.0538 14.8241 31.869 14.8736C31.4695 14.9806 31.1911 14.6195 31.3845 14.2454C31.4678 14.0845 31.6303 14.0181 31.7888 14.0366ZM32.7399 14.0491C33.1138 14.0491 33.2884 14.5115 33.017 14.7829C32.8399 14.96 32.6065 14.9517 32.4282 14.7619C32.1556 14.4717 32.3404 14.0491 32.7399 14.0491ZM25.2177 15.7835C24.6543 15.7835 24.5543 16.3915 25.0436 16.8425C25.4138 17.1837 25.5613 17.1926 25.7084 16.8827C25.9421 16.3902 25.6713 15.7835 25.2177 15.7835ZM35.8139 16.6508C35.1928 16.6508 35.0617 16.9402 35.4852 17.3765C35.789 17.6896 35.8647 17.7062 36.1101 17.5132C36.4778 17.224 36.2809 16.6508 35.8139 16.6508ZM37.0254 18.61C37.1034 18.61 37.151 18.7505 37.152 19.0052C37.1563 20.0551 37.9319 22.4059 38.7131 23.7367C38.9118 24.0753 38.9064 24.1958 38.6799 24.4838C38.4374 24.792 38.3783 24.7319 37.8625 23.6529C37.1907 22.2475 36.8827 21.1732 36.6523 19.4315C36.6096 19.1084 36.6805 18.9162 36.9378 18.658C36.97 18.6257 36.9994 18.6101 37.0254 18.61ZM34.1168 19.2533C34.2089 19.2414 34.2586 19.435 34.3214 19.8863C34.3962 20.4238 34.9542 22.4644 35.0582 22.5808C35.071 22.5951 35.2451 22.494 35.4452 22.3563C36.3307 21.7464 36.9378 22.058 36.8716 23.0884C36.7695 24.6792 35.4756 25.1352 34.8452 23.8025C34.6632 23.4179 34.6785 23.4198 34.3207 23.7408C32.8353 25.0736 29.7547 24.9175 29.6493 23.5041C29.6318 23.2697 29.6015 23.219 29.4562 23.1801C29.2051 23.1129 29.0723 22.9515 29.0342 22.6667C29.0005 22.4156 29.0005 22.4156 28.707 22.4837C28.4134 22.5518 28.4133 22.5517 28.4539 22.8579C28.5631 23.6804 27.958 24.7758 27.1733 25.1761C26.7706 25.3815 26.4126 25.435 26.4126 25.2897C26.4126 25.0422 26.6961 24.6561 26.8778 24.6561C27.7473 24.6561 28.2416 23.5359 27.7352 22.713C27.3795 22.1349 27.6334 21.7694 28.3764 21.79C29.1863 21.8124 29.2486 21.8018 29.4399 21.6106C29.6542 21.3963 29.7226 21.4401 29.6224 21.7273C29.5159 22.0328 29.5302 22.2177 29.67 22.3443C29.9444 22.5926 30.0453 22.5209 30.8664 21.4937C31.8767 20.2297 32.5995 20.0084 33.09 20.8127C33.5916 21.6353 32.9189 22.3464 31.1826 22.829C30.0261 23.1504 30.0493 23.1331 30.3652 23.4389C31.0239 24.0763 32.625 24.0989 33.8509 23.4881C34.6207 23.1046 34.5881 23.1717 34.3563 22.4456C33.8053 20.7197 33.6647 19.8208 33.8931 19.4853C33.991 19.3416 34.0615 19.2604 34.1168 19.2533ZM31.8647 21.085C31.6988 21.1 31.5264 21.2046 31.3073 21.4022C31.0697 21.6165 30.5487 22.2735 30.5487 22.3589C30.5487 22.3827 30.6012 22.3812 30.6654 22.3556C30.7296 22.33 31.0974 22.21 31.4826 22.0889C32.7736 21.6831 32.8059 21.6551 32.3832 21.3046C32.19 21.1444 32.0306 21.0699 31.8647 21.085ZM35.7577 22.7861C35.5897 22.7751 35.4252 22.8196 35.3121 22.9332C35.1691 23.0769 35.5523 23.6317 35.9052 23.792C36.4044 24.0186 36.5819 23.8241 36.4074 23.2417C36.3281 22.977 36.0379 22.8044 35.7577 22.7861ZM19.331 25.3232C19.671 25.3232 19.8672 25.7336 19.6582 26.0072C19.4923 26.2244 19.0858 26.1997 18.9254 25.9627C18.7567 25.7135 19.0043 25.3232 19.331 25.3232ZM20.2669 25.3352C20.6542 25.2977 20.8908 25.7035 20.6588 26.0072C20.4601 26.2674 19.9769 26.1871 19.9001 25.8811C19.8313 25.607 19.9964 25.3613 20.2669 25.3352ZM25.4602 31.2732C25.8356 31.2365 26.079 31.6464 25.856 31.9398C25.6558 32.2032 25.1809 32.1266 25.1036 31.8184C25.0361 31.5494 25.2001 31.2986 25.4602 31.2732ZM26.4586 31.2734C26.8768 31.2324 27.0803 31.6662 26.7825 31.9639C26.6077 32.1387 26.5318 32.1538 26.2978 32.0597C25.9429 31.9169 26.0667 31.3118 26.4586 31.2734ZM29.565 31.621C29.6371 31.6211 29.711 31.6417 29.7797 31.6868C29.9967 31.829 30.0416 32.0161 29.9166 32.2577C29.7212 32.6357 29.1478 32.489 29.1478 32.061C29.1478 31.8038 29.3486 31.6205 29.565 31.621Z" fill="#E87518"/>
</svg>
