<svg width="304" height="56" viewBox="0 0 304 56" fill="none" xmlns="http://www.w3.org/2000/svg">
<path d="M302.592 1.49048V53.8079H7.41113L31.5391 1.49048H302.592Z" fill="#F6C13F" stroke="#F6C13F"/>
<path d="M302.592 1.49048V53.8079H7.41113L31.5391 1.49048H302.592Z" fill="#F6C13F" stroke="#F6C13F"/>
<path d="M302.592 1.49048V53.8079H7.41113L31.5391 1.49048H302.592Z" fill="#F6C13F" stroke="#F6C13F"/>
<path d="M46.9838 23.0523L24.6185 1.80225L1.40918 36.9478L6.83473 53.4957L46.9838 23.0523Z" fill="#006272" stroke="#006272"/>
<path d="M53.3295 22.9081L30.2616 0.990479L6.32324 37.24L11.9192 54.3077L53.3295 22.9081Z" fill="white" stroke="white"/>
<path d="M30.0728 4.41602L21.1735 17.8094C21.253 17.8886 24.1195 17.7982 24.5613 17.7094C25.0026 17.6208 25.0026 17.6208 24.8048 17.2477C24.4473 16.5729 24.638 15.9018 25.3641 15.2804C26.3241 14.4586 27.0282 15.4483 26.4209 16.7658C26.155 17.3428 26.1547 17.3425 26.8774 17.3372C27.5696 17.3321 28.0656 17.1889 29.0036 16.723C30.1121 16.1724 30.1028 16.1836 29.5735 16.028C28.2383 15.6355 27.089 15.0349 27.1931 14.7841C27.4272 14.2203 27.4227 14.2199 28.9569 14.9219C30.0307 15.4132 30.5863 15.5395 31.675 15.5399C32.2346 15.5401 32.6924 15.5637 32.6924 15.5924C32.6922 16.0656 32.3572 16.2577 31.4667 16.295C30.7413 16.3253 30.7413 16.3252 30.7794 16.6469C30.9048 17.7057 32.0988 17.8742 32.5283 16.8937C32.9145 16.0121 33.0169 15.9667 33.3066 16.5486C33.696 17.3312 34.0389 17.5113 34.603 17.2296C34.9235 17.0695 34.9411 17.0166 34.7919 16.6597C34.4 15.7217 33.8939 13.0261 34.0522 12.7199C34.3215 12.1993 34.5603 12.3795 34.5603 13.1033C34.5603 13.2971 35.0669 15.2762 35.2737 15.8905C35.4796 16.5019 35.5189 16.5283 35.7944 16.2408C35.8999 16.1307 36.0256 16.0406 36.0738 16.0406C36.1219 16.0406 36.1613 16.0106 36.1613 15.9739C36.1613 15.8414 36.8595 15.8975 37.0151 16.0425C37.5474 16.5383 37.0032 18.2287 36.2506 18.4176C35.8711 18.5128 35.4153 18.1745 35.1923 17.6322C35.065 17.3225 35.065 17.3226 34.7292 17.6026C33.8676 18.3212 33.341 18.2548 32.9192 17.3742C32.7647 17.0516 32.7452 17.049 32.6095 17.3337C31.9229 18.7734 30.4331 18.5519 30.3064 16.9913C30.2702 16.5448 30.2578 16.5258 30.0958 16.6647C30.0379 16.7145 29.8265 16.842 29.626 16.9483C29.4255 17.0545 29.2279 17.1714 29.1869 17.2081C29.1185 17.2693 28.6695 17.4828 28.0893 17.7299C27.3196 18.0577 26.3323 18.1853 25.8152 18.0237C25.5364 17.9366 25.4944 17.9386 25.3475 18.0456C24.8591 18.4014 24.4322 18.469 22.51 18.4952C22.2419 18.4989 22.0833 18.5031 21.8881 18.5068L21.8932 18.5044L20.6946 18.4883L17.1751 23.8175C17.4342 23.9232 23.7529 23.8772 24.587 23.7607C26.3641 23.5124 26.8652 23.0305 25.6838 22.7056C24.5167 22.3846 24.63 21.8215 26.0546 20.8639C26.7984 20.3639 27.8892 19.8634 27.8892 20.0222C27.8892 20.1449 27.6003 20.6437 27.5292 20.6437C27.4269 20.6437 25.7674 21.4716 25.5879 21.6122C25.4274 21.7378 25.5017 21.8049 25.9212 21.9137C26.9982 22.1929 27.152 22.782 26.374 23.6474C25.5781 24.5325 25.1228 24.6065 20.4385 24.6101C20.2549 24.6102 20.177 24.6147 20.0108 24.615L20.0221 24.6105L16.66 24.564L12.8794 30.3971C12.8797 30.4554 22.2632 30.4508 23.1527 30.392C25.2026 30.2566 25.6807 29.7665 24.71 28.7958C24.4671 28.5529 24.7597 27.8684 25.074 27.9444C25.9145 28.1477 26.1106 28.1332 26.6105 27.8315C26.8934 27.6607 26.9305 27.6982 27.2234 28.4488C27.7528 29.8059 28.5754 30.5638 28.9266 30.0183C29.0119 29.8858 29.0051 29.8012 28.8567 29.1416C28.8203 28.9796 28.8484 28.873 28.9842 28.6579C29.2025 28.3121 29.2624 28.3167 29.5816 28.7033C30.3872 29.679 30.5904 29.8706 31.0552 30.0934C31.801 30.4508 32.3504 30.3774 32.4619 29.9055C32.5168 29.6731 32.2501 29.4394 30.4575 28.149C30.1273 27.9113 29.8129 27.6789 29.7589 27.6325C29.6978 27.5801 29.3988 27.5396 28.968 27.5253C28.2753 27.5023 28.2752 27.5023 28.3139 27.3087C28.4112 26.8224 28.4594 26.801 29.5426 26.7628C30.8425 26.7169 31.646 26.505 33.1176 25.8201C33.929 25.4425 34.0008 25.4601 33.695 25.9617C33.5078 26.2688 31.7208 27.111 31.0182 27.2234C30.8763 27.2461 30.777 27.2921 30.7977 27.3255C30.9257 27.5326 33.3844 29.2586 34.1021 29.6453C34.805 30.0239 36.311 30.5183 36.2112 30.3377C35.7058 29.4222 34.4268 26.1456 34.4268 25.7662C34.4268 25.5833 34.6811 25.18 34.7965 25.18C34.8518 25.18 34.9438 25.359 35.0271 25.6287C35.3972 26.827 36.0956 28.5241 36.7265 29.7579C37.3982 31.0714 36.9631 31.4275 35.2274 30.9847C34.6298 30.8323 33.7377 30.4449 33.2217 30.1139C32.8527 29.877 32.7851 29.8704 32.7357 30.0666C32.4285 31.2865 31.0036 31.3708 29.8729 30.2361C29.3331 29.6943 29.2903 29.6624 29.2897 29.7997C29.2834 31.2055 27.4575 31.2484 27.1082 29.8511C26.9562 29.2428 26.5692 28.6482 26.3266 28.65C25.8562 28.6534 25.6561 28.8164 25.6192 29.2262C25.5384 30.122 24.9717 30.7343 23.9532 31.0263C23.5459 31.1431 23.1856 31.1506 18.016 31.1506C14.989 31.1507 12.4754 31.1582 12.4301 31.1673L7.92676 37.9885L12.1347 50.8821C49.2676 22.6998 30.5313 37.0429 38.2141 31.0685C38.306 30.9959 38.2781 30.902 37.9728 30.2591C37.0787 28.3763 36.5541 25.9769 36.9291 25.4853C37.1812 25.1548 37.203 25.1736 37.291 25.7971C37.4855 27.1759 37.9404 28.6105 38.5982 29.9204C38.9611 30.6429 38.7199 30.7027 40.2966 29.4995C49.2676 22.6998 12.1347 50.8822 49.2676 22.6998C30.0728 4.41602 49.2676 22.6998 30.0728 4.41602ZM37.1988 12.2192C37.2868 12.2419 37.3531 12.4238 37.3822 12.7609C37.4825 13.9219 38.0558 15.7114 38.7312 16.9715C39.1555 17.7629 39.1527 17.7464 38.9131 18.0621C38.6405 18.4215 38.658 18.4354 38.1757 17.4702C37.3496 15.8172 36.6577 13.2228 36.8856 12.6325C37.0013 12.3329 37.1109 12.1965 37.1988 12.2192ZM25.6266 13.1993C25.9278 13.2103 26.176 13.5963 25.9284 13.9226C25.7957 14.0973 25.3889 14.0782 25.2579 13.891C25.1104 13.6804 25.1287 13.5249 25.3242 13.3295C25.42 13.2337 25.5262 13.1956 25.6266 13.1993ZM32.198 14.0268C32.3566 14.0452 32.5112 14.1485 32.5789 14.327C32.6422 14.4942 32.4629 14.8143 32.2781 14.8638C31.8787 14.9708 31.6003 14.6098 31.7937 14.2357C31.877 14.0747 32.0394 14.0083 32.198 14.0268ZM33.149 14.0393C33.523 14.0393 33.6976 14.5017 33.4262 14.7731C33.2491 14.9502 33.0156 14.9419 32.8374 14.7521C32.5648 14.462 32.7496 14.0393 33.149 14.0393ZM25.6269 15.7738C25.0634 15.7738 24.9635 16.3817 25.4528 16.8327C25.823 17.1739 25.9705 17.1828 26.1176 16.8729C26.3513 16.3804 26.0805 15.7738 25.6269 15.7738ZM36.2231 16.641C35.602 16.641 35.4709 16.9305 35.8943 17.3668C36.1982 17.6798 36.2739 17.6964 36.5192 17.5034C36.887 17.2142 36.6901 16.641 36.2231 16.641ZM37.4346 18.6003C37.5125 18.6002 37.5602 18.7407 37.5612 18.9954C37.5654 20.0453 38.3411 22.3961 39.1223 23.727C39.321 24.0655 39.3156 24.186 39.089 24.4741C38.8466 24.7823 38.7875 24.7222 38.2717 23.6432C37.5999 22.2378 37.2919 21.1634 37.0615 19.4218C37.0188 19.0986 37.0897 18.9064 37.347 18.6482C37.3791 18.616 37.4086 18.6003 37.4346 18.6003ZM34.526 19.2435C34.6181 19.2317 34.6678 19.4253 34.7306 19.8765C34.8054 20.4141 35.3633 22.4546 35.4674 22.571C35.4802 22.5853 35.6543 22.4842 35.8543 22.3465C36.7399 21.7366 37.3469 22.0482 37.2808 23.0786C37.1787 24.6694 35.8848 25.1254 35.2543 23.7928C35.0724 23.4081 35.0877 23.41 34.7299 23.731C33.2445 25.0638 30.1639 24.9077 30.0585 23.4944C30.041 23.2599 30.0107 23.2092 29.8654 23.1703C29.6142 23.1032 29.4815 22.9417 29.4433 22.657C29.4096 22.4058 29.4097 22.4058 29.1162 22.4739C28.8226 22.542 28.8225 22.542 28.8631 22.8481C28.9722 23.6706 28.3672 24.766 27.5825 25.1663C27.1798 25.3717 26.8218 25.4252 26.8218 25.2799C26.8218 25.0324 27.1052 24.6463 27.287 24.6463C28.1565 24.6463 28.6508 23.5262 28.1444 22.7032C27.7887 22.1251 28.0426 21.7597 28.7856 21.7802C29.5955 21.8026 29.6578 21.7921 29.8491 21.6008C30.0634 21.3865 30.1318 21.4303 30.0316 21.7176C29.9251 22.023 29.9394 22.208 30.0792 22.3345C30.3536 22.5829 30.4544 22.5111 31.2755 21.4839C32.2859 20.22 33.0087 19.9986 33.4991 20.8029C34.0008 21.6255 33.328 22.3367 31.5918 22.8192C30.4352 23.1406 30.4585 23.1233 30.7744 23.4291C31.4331 24.0666 33.0342 24.0892 34.2601 23.4784C35.0298 23.0948 34.9973 23.1619 34.7655 22.4359C34.2145 20.71 34.0738 19.811 34.3023 19.4756C34.4002 19.3318 34.4707 19.2506 34.526 19.2435ZM32.2738 21.0752C32.1079 21.0903 31.9356 21.1948 31.7164 21.3925C31.4788 21.6068 30.9579 22.2637 30.9579 22.3491C30.9579 22.3729 31.0104 22.3714 31.0746 22.3458C31.1388 22.3202 31.5066 22.2002 31.8918 22.0791C33.1828 21.6733 33.2151 21.6453 32.7924 21.2949C32.5992 21.1347 32.4398 21.0601 32.2738 21.0752ZM36.1669 22.7763C35.9988 22.7653 35.8344 22.8099 35.7213 22.9234C35.5782 23.0671 35.9614 23.622 36.3144 23.7822C36.8136 24.0088 36.991 23.8143 36.8166 23.232C36.7373 22.9673 36.447 22.7947 36.1669 22.7763ZM19.7402 25.3134C20.0801 25.3134 20.2764 25.7238 20.0673 25.9975C19.9015 26.2146 19.495 26.1899 19.3346 25.9529C19.1659 25.7038 19.4135 25.3134 19.7402 25.3134ZM20.6761 25.3254C21.0634 25.288 21.3 25.6937 21.068 25.9975C20.8693 26.2577 20.3861 26.1774 20.3093 25.8713C20.2405 25.5973 20.4055 25.3516 20.6761 25.3254ZM25.8694 31.2635C26.2448 31.2267 26.4882 31.6367 26.2652 31.93C26.065 32.1934 25.5901 32.1168 25.5127 31.8086C25.4452 31.5397 25.6093 31.2889 25.8694 31.2635ZM26.8678 31.2636C27.286 31.2226 27.4894 31.6564 27.1917 31.9541C27.0169 32.129 26.9409 32.144 26.707 32.0499C26.3521 31.9071 26.4758 31.302 26.8678 31.2636ZM29.9742 31.6112C30.0463 31.6113 30.1201 31.632 30.1889 31.677C30.4059 31.8192 30.4508 32.0063 30.3258 32.248C30.1303 32.626 29.5569 32.4793 29.5569 32.0512C29.5569 31.794 29.7578 31.6108 29.9742 31.6112Z" fill="#E87518"/>
</svg>
