<svg width="32" height="29" viewBox="0 0 32 29" fill="none" xmlns="http://www.w3.org/2000/svg">
<path d="M29.5848 25.9717H2.26022C1.85761 25.9717 1.47149 26.1316 1.18681 26.4163C0.902122 26.701 0.742188 27.0871 0.742188 27.4897C0.742188 27.8923 0.902122 28.2784 1.18681 28.5631C1.47149 28.8478 1.85761 29.0077 2.26022 29.0077H29.5848C29.9874 29.0077 30.3735 28.8478 30.6582 28.5631C30.9429 28.2784 31.1028 27.8923 31.1028 27.4897C31.1028 27.0871 30.9429 26.701 30.6582 26.4163C30.3735 26.1316 29.9874 25.9717 29.5848 25.9717Z" fill="white"/>
<path d="M15.923 0.165039C15.5204 0.165039 15.1343 0.324974 14.8496 0.60966C14.5649 0.894346 14.405 1.28046 14.405 1.68307V17.759L9.41064 12.7495C9.12479 12.4637 8.73709 12.3031 8.33284 12.3031C7.92858 12.3031 7.54088 12.4637 7.25503 12.7495C6.96918 13.0354 6.80859 13.4231 6.80859 13.8273C6.80859 14.2316 6.96918 14.6193 7.25503 14.9051L14.8452 22.4953C14.9863 22.6376 15.1542 22.7505 15.3392 22.8276C15.5242 22.9046 15.7226 22.9443 15.923 22.9443C16.1234 22.9443 16.3218 22.9046 16.5068 22.8276C16.6918 22.7505 16.8597 22.6376 17.0008 22.4953L24.5909 14.9051C24.7325 14.7636 24.8448 14.5955 24.9214 14.4106C24.998 14.2257 25.0374 14.0275 25.0374 13.8273C25.0374 13.6272 24.998 13.4289 24.9214 13.244C24.8448 13.0591 24.7325 12.8911 24.5909 12.7495C24.4494 12.608 24.2814 12.4957 24.0964 12.4191C23.9115 12.3425 23.7133 12.3031 23.5131 12.3031C23.313 12.3031 23.1148 12.3425 22.9298 12.4191C22.7449 12.4957 22.5769 12.608 22.4353 12.7495L17.441 17.759V1.68307C17.441 1.28046 17.2811 0.894346 16.9964 0.60966C16.7117 0.324974 16.3256 0.165039 15.923 0.165039Z" fill="white"/>
</svg>
