<svg width="26" height="27" viewBox="0 0 26 27" fill="none" xmlns="http://www.w3.org/2000/svg">
<path d="M20.6551 17.478C19.1177 17.478 17.763 18.2342 16.9121 19.3843L9.55545 15.6173C9.6776 15.2009 9.76343 14.7695 9.76343 14.3142C9.76343 13.6967 9.63683 13.1096 9.41811 12.5697L17.1172 7.93667C17.974 8.94223 19.2334 9.59449 20.6551 9.59449C23.2291 9.59449 25.3229 7.50064 25.3229 4.92664C25.3229 2.35263 23.2291 0.258789 20.6551 0.258789C18.0811 0.258789 15.9872 2.35263 15.9872 4.92664C15.9872 5.51982 16.1094 6.0825 16.312 6.60488L8.58999 11.2515C7.7339 10.2758 6.49267 9.64635 5.09558 9.64635C2.52158 9.64635 0.427734 11.7402 0.427734 14.3142C0.427734 16.8882 2.52158 18.982 5.09558 18.982C6.65827 18.982 8.03586 18.2036 8.88354 17.0212L16.216 20.776C16.0809 21.212 15.9872 21.6661 15.9872 22.1458C15.9872 24.7198 18.0811 26.8137 20.6551 26.8137C23.2291 26.8137 25.3229 24.7198 25.3229 22.1458C25.3229 19.5718 23.2291 17.478 20.6551 17.478Z" fill="white"/>
</svg>
