<svg width="29" height="35" viewBox="0 0 29 35" fill="none" xmlns="http://www.w3.org/2000/svg">
<path fill-rule="evenodd" clip-rule="evenodd" d="M0.346608 30.4542C1.46259 34.3727 4.68873 35.2085 8.4371 34.1873C11.0443 33.477 13.7584 31.9467 15.9674 30.3914C17.5853 29.2524 19.5192 28.1253 21.4363 27.5568C23.1499 27.0487 25.1806 26.892 26.0352 28.7624C26.3413 29.4326 26.4532 30.2146 26.4832 30.9423C26.4992 31.3295 26.8335 31.6325 27.2306 31.6173C27.6269 31.6021 27.9376 31.2755 27.9215 30.8883C27.7463 26.6642 25.1754 24.9816 21.0195 26.2139C18.9513 26.8272 16.8736 28.0226 15.128 29.2516C13.0531 30.7124 10.5037 32.1652 8.05556 32.8322C6.12999 33.3568 3.82 33.5118 2.51446 31.7447C2.1475 31.248 1.90168 30.6685 1.73447 30.0809C1.62821 29.7074 1.23187 29.487 0.848752 29.5903C0.466536 29.6935 0.240198 30.0808 0.346608 30.4542ZM19.8087 6.70063C19.4511 6.3517 19.451 5.78395 19.8086 5.43495L24.1214 1.22481C24.8941 0.470549 26.1475 0.47077 26.9204 1.22467L28.1082 2.38345C28.8792 3.13558 28.879 4.36337 28.1084 5.11565L23.7955 9.32586C23.4381 9.67479 22.8567 9.67486 22.4992 9.326L19.8087 6.70063ZM16.4981 8.6692C16.8557 8.32019 17.4374 8.32027 17.7948 8.66949L20.4814 11.2946C20.8386 11.6436 20.8384 12.211 20.4811 12.5598L6.6859 26.0265C6.3851 26.2452 2.23556 27.9116 1.76445 28.1012C1.0155 28.4026 0.261722 27.6723 0.565017 26.9389C0.858192 26.23 2.37814 22.5337 2.68453 22.1538L16.4981 8.6692Z" fill="white"/>
</svg>
